<svg width="135" height="40" viewBox="0 0 135 40" fill="none" xmlns="http://www.w3.org/2000/svg">
<path d="M130 0H5C2.23858 0 0 2.23858 0 5V35C0 37.7614 2.23858 40 5 40H130C132.761 40 135 37.7614 135 35V5C135 2.23858 132.761 0 130 0Z" fill="white"/>
<path d="M130 0.8C131.114 0.8 132.182 1.2425 132.97 2.03015C133.757 2.8178 134.2 3.88609 134.2 5V35C134.2 36.1139 133.757 37.1822 132.97 37.9698C132.182 38.7575 131.114 39.2 130 39.2H5C3.88609 39.2 2.8178 38.7575 2.03015 37.9698C1.2425 37.1822 0.8 36.1139 0.8 35V5C0.8 3.88609 1.2425 2.8178 2.03015 2.03015C2.8178 1.2425 3.88609 0.8 5 0.8H130ZM130 0H5C3.67392 0 2.40215 0.526784 1.46447 1.46447C0.526784 2.40215 0 3.67392 0 5V35C0 36.3261 0.526784 37.5978 1.46447 38.5355C2.40215 39.4732 3.67392 40 5 40H130C131.326 40 132.598 39.4732 133.536 38.5355C134.473 37.5978 135 36.3261 135 35V5C135 3.67392 134.473 2.40215 133.536 1.46447C132.598 0.526784 131.326 0 130 0Z" fill="white"/>
<path d="M32.1127 19.313C32.085 16.2421 34.6271 14.7481 34.7434 14.6786C33.3037 12.5795 31.0722 12.2927 30.288 12.2699C28.4139 12.0726 26.5959 13.3913 25.6412 13.3913C24.6674 13.3913 23.1973 12.2889 21.6127 12.3213C19.5737 12.3528 17.6662 13.5333 16.62 15.3665C14.461 19.1043 16.0712 24.5973 18.1398 27.6186C19.1745 29.0983 20.3836 30.7505 21.9662 30.6924C23.5145 30.6285 24.0929 29.7053 25.9614 29.7053C27.8127 29.7053 28.3558 30.6924 29.9698 30.6552C31.6315 30.6285 32.6777 29.1688 33.6762 27.6758C34.872 25.9798 35.3522 24.3095 35.3713 24.2238C35.3322 24.2104 32.1441 22.9937 32.1127 19.313Z" fill="#313B4D"/>
<path d="M29.0641 10.2823C29.8968 9.24084 30.4666 7.82402 30.3085 6.38623C29.1032 6.43959 27.5958 7.21994 26.7278 8.23849C25.9598 9.13603 25.2738 10.6072 25.451 11.9906C26.805 12.0916 28.1951 11.3075 29.0641 10.2823Z" fill="#313B4D"/>
<path d="M54.5192 30.4798H52.3554L51.1701 26.7552H47.0502L45.9211 30.4798H43.8145L47.8963 17.7998H50.4174L54.5192 30.4798ZM50.8128 25.1926L49.7409 21.8816C49.6275 21.5434 49.4151 20.7468 49.1016 19.4929H49.0635C48.9386 20.0322 48.7376 20.8288 48.4613 21.8816L47.4084 25.1926H50.8128Z" fill="#313B4D"/>
<path d="M65.0158 25.7958C65.0158 27.3507 64.5956 28.5799 63.7552 29.4822C63.0025 30.2854 62.0678 30.6865 60.9521 30.6865C59.7477 30.6865 58.8826 30.2539 58.3557 29.3888H58.3176V34.2052H56.2862V24.3465C56.2862 23.369 56.2605 22.3657 56.2109 21.3366H57.9974L58.1108 22.7858H58.1489C58.8264 21.6939 59.8545 21.1489 61.2341 21.1489C62.3127 21.1489 63.2131 21.5748 63.9334 22.4276C64.6556 23.2813 65.0158 24.4037 65.0158 25.7958ZM62.9463 25.8701C62.9463 24.9802 62.7462 24.2465 62.3441 23.6691C61.9049 23.0669 61.3151 22.7658 60.5757 22.7658C60.0746 22.7658 59.6191 22.9335 59.2123 23.2642C58.8045 23.5976 58.5377 24.0331 58.4129 24.5724C58.35 24.8239 58.3185 25.0297 58.3185 25.1917V26.7162C58.3185 27.3812 58.5224 27.9424 58.9302 28.4007C59.338 28.859 59.8678 29.0877 60.5195 29.0877C61.2846 29.0877 61.8801 28.7923 62.306 28.2035C62.7329 27.6137 62.9463 26.8362 62.9463 25.8701Z" fill="#313B4D"/>
<path d="M75.5325 25.7958C75.5325 27.3507 75.1123 28.5799 74.2709 29.4822C73.5192 30.2854 72.5845 30.6865 71.4687 30.6865C70.2644 30.6865 69.3992 30.2539 68.8733 29.3888H68.8352V34.2052H66.8038V24.3465C66.8038 23.369 66.7781 22.3657 66.7285 21.3366H68.515L68.6284 22.7858H68.6665C69.343 21.6939 70.3711 21.1489 71.7517 21.1489C72.8293 21.1489 73.7297 21.5748 74.452 22.4276C75.1713 23.2813 75.5325 24.4037 75.5325 25.7958ZM73.463 25.8701C73.463 24.9802 73.2619 24.2465 72.8598 23.6691C72.4206 23.0669 71.8327 22.7658 71.0924 22.7658C70.5902 22.7658 70.1358 22.9335 69.728 23.2642C69.3202 23.5976 69.0543 24.0331 68.9295 24.5724C68.8676 24.8239 68.8352 25.0297 68.8352 25.1917V26.7162C68.8352 27.3812 69.0391 27.9424 69.445 28.4007C69.8528 28.8581 70.3825 29.0877 71.0362 29.0877C71.8013 29.0877 72.3968 28.7923 72.8227 28.2035C73.2495 27.6137 73.463 26.8362 73.463 25.8701Z" fill="#313B4D"/>
<path d="M87.2902 26.9239C87.2902 28.0025 86.9158 28.88 86.164 29.5574C85.3379 30.2978 84.1879 30.6675 82.7101 30.6675C81.3456 30.6675 80.2518 30.4045 79.4238 29.8776L79.8945 28.1844C80.7863 28.7237 81.7649 28.9943 82.8311 28.9943C83.5962 28.9943 84.1917 28.8209 84.6195 28.476C85.0454 28.1311 85.2579 27.668 85.2579 27.0906C85.2579 26.5761 85.0825 26.1426 84.731 25.791C84.3813 25.4394 83.7972 25.1126 82.9816 24.8106C80.7616 23.9826 79.6525 22.7696 79.6525 21.1747C79.6525 20.1323 80.0413 19.2776 80.8197 18.6126C81.5953 17.9465 82.63 17.614 83.9239 17.614C85.0778 17.614 86.0363 17.8151 86.8014 18.2162L86.2936 19.8722C85.579 19.4834 84.771 19.289 83.8668 19.289C83.1522 19.289 82.5938 19.4653 82.1936 19.8159C81.8554 20.1294 81.6858 20.5115 81.6858 20.9641C81.6858 21.4653 81.8792 21.8797 82.268 22.2056C82.6062 22.5067 83.2208 22.8325 84.1126 23.1841C85.2036 23.6234 86.0049 24.1369 86.5203 24.7258C87.0339 25.3127 87.2902 26.0473 87.2902 26.9239Z" fill="#313B4D"/>
<path d="M94.0067 22.861H91.7676V27.3001C91.7676 28.4292 92.162 28.9933 92.9529 28.9933C93.3159 28.9933 93.617 28.9618 93.8552 28.8989L93.9114 30.4415C93.5112 30.5911 92.9843 30.6664 92.3316 30.6664C91.5294 30.6664 90.9024 30.4215 90.4498 29.9327C89.9992 29.443 89.7724 28.6217 89.7724 27.4678V22.8591H88.4385V21.3346H89.7724V19.6605L91.7676 19.0583V21.3346H94.0067V22.861Z" fill="#313B4D"/>
<path d="M104.109 25.8329C104.109 27.2383 103.707 28.3922 102.904 29.2945C102.063 30.2235 100.946 30.6865 99.5543 30.6865C98.2128 30.6865 97.1447 30.2416 96.3481 29.3517C95.5516 28.4617 95.1533 27.3384 95.1533 25.9844C95.1533 24.5676 95.563 23.4071 96.3853 22.5048C97.2057 21.6015 98.3128 21.1499 99.7049 21.1499C101.046 21.1499 102.126 21.5949 102.941 22.4857C103.72 23.3499 104.109 24.4657 104.109 25.8329ZM102.001 25.8987C102.001 25.0555 101.821 24.3323 101.456 23.7291C101.03 22.9993 100.421 22.6353 99.6325 22.6353C98.8159 22.6353 98.1956 23.0003 97.7697 23.7291C97.4048 24.3332 97.2247 25.0678 97.2247 25.9368C97.2247 26.78 97.4048 27.5032 97.7697 28.1054C98.209 28.8352 98.8226 29.1992 99.6144 29.1992C100.39 29.1992 100.999 28.8276 101.438 28.0863C101.812 27.4718 102.001 26.741 102.001 25.8987Z" fill="#313B4D"/>
<path d="M110.712 23.1231C110.511 23.086 110.297 23.0669 110.072 23.0669C109.357 23.0669 108.805 23.3366 108.416 23.8768C108.078 24.3532 107.908 24.9554 107.908 25.6824V30.4798H105.877L105.897 24.216C105.897 23.1622 105.871 22.2027 105.82 21.3376H107.59L107.664 23.0869H107.72C107.935 22.4857 108.273 22.0017 108.736 21.6387C109.188 21.3119 109.677 21.1489 110.204 21.1489C110.392 21.1489 110.561 21.1623 110.712 21.1861V23.1231Z" fill="#313B4D"/>
<path d="M119.796 25.4757C119.796 25.8397 119.773 26.1465 119.722 26.397H113.628C113.652 27.3003 113.946 27.9911 114.512 28.4675C115.026 28.8934 115.69 29.1068 116.505 29.1068C117.408 29.1068 118.231 28.9629 118.971 28.6742L119.29 30.0844C118.424 30.4617 117.403 30.6494 116.224 30.6494C114.807 30.6494 113.694 30.2321 112.884 29.3984C112.076 28.5647 111.671 27.4451 111.671 26.0407C111.671 24.662 112.047 23.5139 112.801 22.5982C113.59 21.6206 114.656 21.1318 115.998 21.1318C117.315 21.1318 118.313 21.6206 118.99 22.5982C119.527 23.3747 119.796 24.3352 119.796 25.4757ZM117.859 24.9488C117.873 24.3466 117.74 23.8264 117.465 23.3871C117.113 22.8221 116.573 22.5401 115.846 22.5401C115.182 22.5401 114.642 22.8154 114.229 23.3681C113.891 23.8073 113.69 24.3342 113.628 24.9478H117.859V24.9488Z" fill="#313B4D"/>
<path d="M51.0973 14.7011H50.0407V13.1249H45.8185V14.7011H44.7442L44.709 12.2356H45.2241C45.4795 11.989 45.6834 11.6309 45.8361 11.1613C45.9887 10.6888 46.087 10.1546 46.1311 9.55874L46.2984 6.7146H50.34V12.2356H51.1545L51.0973 14.7011ZM46.4833 12.2356H49.2306V7.61275H47.3594L47.2537 9.41786C47.1745 10.6242 46.9177 11.5634 46.4833 12.2356Z" fill="#313B4D"/>
<path d="M52.1381 10.699C52.1381 10.2324 52.2306 9.81263 52.4155 9.43987C52.6004 9.06417 52.8601 8.77653 53.1947 8.57694C53.5293 8.37442 53.9138 8.27315 54.3482 8.27315C54.991 8.27315 55.512 8.48008 55.9112 8.89393C56.3133 9.30779 56.5305 9.85666 56.5628 10.5405L56.5672 10.7915C56.5672 11.2611 56.4762 11.6808 56.2942 12.0507C56.1152 12.4205 55.8569 12.7067 55.5194 12.9092C55.1848 13.1117 54.7973 13.213 54.3571 13.213C53.6849 13.213 53.1463 12.9899 52.7413 12.5438C52.3392 12.0947 52.1381 11.4974 52.1381 10.7519V10.699ZM53.208 10.7915C53.208 11.2817 53.3092 11.6662 53.5117 11.945C53.7143 12.2209 53.996 12.3589 54.3571 12.3589C54.7181 12.3589 54.9984 12.218 55.198 11.9362C55.4005 11.6544 55.5018 11.242 55.5018 10.699C55.5018 10.2177 55.3976 9.83611 55.1892 9.55434C54.9837 9.27257 54.7034 9.13168 54.3482 9.13168C53.999 9.13168 53.7216 9.2711 53.5161 9.54994C53.3107 9.82584 53.208 10.2397 53.208 10.7915Z" fill="#313B4D"/>
<path d="M59.8798 12.3589C60.1469 12.3589 60.3685 12.2811 60.5446 12.1255C60.7207 11.97 60.8146 11.7777 60.8264 11.5488H61.8346C61.8229 11.8452 61.7304 12.1226 61.5572 12.3809C61.3841 12.6362 61.1492 12.8387 60.8528 12.9884C60.5563 13.1381 60.2364 13.213 59.893 13.213C59.2267 13.213 58.6984 12.9972 58.308 12.5658C57.9177 12.1343 57.7225 11.5385 57.7225 10.7783V10.6682C57.7225 9.94324 57.9162 9.36356 58.3036 8.92916C58.6911 8.49182 59.2194 8.27315 59.8886 8.27315C60.4551 8.27315 60.9159 8.43899 61.271 8.77066C61.6291 9.09939 61.817 9.53233 61.8346 10.0695H60.8264C60.8146 9.79649 60.7207 9.57195 60.5446 9.39584C60.3714 9.21973 60.1498 9.13168 59.8798 9.13168C59.5335 9.13168 59.2664 9.25789 59.0785 9.51031C58.8907 9.7598 58.7953 10.1399 58.7923 10.6506V10.8223C58.7923 11.3389 58.8848 11.7249 59.0697 11.9802C59.2575 12.2326 59.5276 12.3589 59.8798 12.3589Z" fill="#313B4D"/>
<path d="M66.8422 9.21093H65.2969V13.1249H64.227V9.21093H62.6993V8.36121H66.8422V9.21093Z" fill="#313B4D"/>
<path d="M69.7277 11.5928L70.6963 8.36121H71.8366L69.9435 13.847C69.6529 14.6483 69.1598 15.0489 68.4642 15.0489C68.3086 15.0489 68.1369 15.0225 67.9491 14.9697V14.1419L68.1516 14.1552C68.4216 14.1552 68.6241 14.1053 68.7592 14.0055C68.8971 13.9086 69.0057 13.7442 69.085 13.5124L69.239 13.1029L67.566 8.36121H68.7195L69.7277 11.5928Z" fill="#313B4D"/>
<path d="M76.9455 13.1249H75.8757V9.22414H74.0177V13.1249H72.9479V8.36121H76.9455V13.1249Z" fill="#313B4D"/>
<path d="M82.5695 13.1249H81.4997V11.2009H79.6461V13.1249H78.5763V8.36121H79.6461V10.3468H81.4997V8.36121H82.5695V13.1249Z" fill="#313B4D"/>
<path d="M83.9625 10.699C83.9625 10.2324 84.055 9.81263 84.2399 9.43987C84.4248 9.06417 84.6846 8.77653 85.0192 8.57694C85.3538 8.37442 85.7383 8.27315 86.1727 8.27315C86.8155 8.27315 87.3365 8.48008 87.7357 8.89393C88.1378 9.30779 88.355 9.85666 88.3873 10.5405L88.3917 10.7915C88.3917 11.2611 88.3007 11.6808 88.1187 12.0507C87.9396 12.4205 87.6814 12.7067 87.3438 12.9092C87.0092 13.1117 86.6218 13.213 86.1815 13.213C85.5094 13.213 84.9708 12.9899 84.5657 12.5438C84.1636 12.0947 83.9625 11.4974 83.9625 10.7519V10.699ZM85.0324 10.7915C85.0324 11.2817 85.1337 11.6662 85.3362 11.945C85.5387 12.2209 85.8205 12.3589 86.1815 12.3589C86.5425 12.3589 86.8228 12.218 87.0224 11.9362C87.2249 11.6544 87.3262 11.242 87.3262 10.699C87.3262 10.2177 87.222 9.83611 87.0136 9.55434C86.8082 9.27257 86.5279 9.13168 86.1727 9.13168C85.8234 9.13168 85.5461 9.2711 85.3406 9.54994C85.1351 9.82584 85.0324 10.2397 85.0324 10.7915Z" fill="#313B4D"/>
<path d="M92.5249 13.1249V8.36121H94.4577C95.1093 8.36121 95.6053 8.47568 95.9458 8.70462C96.2863 8.93062 96.4565 9.25642 96.4565 9.68202C96.4565 9.90215 96.3875 10.1003 96.2496 10.2764C96.1146 10.4496 95.9135 10.5831 95.6464 10.677C95.9575 10.7416 96.2041 10.8722 96.3861 11.0689C96.5681 11.2655 96.659 11.4974 96.659 11.7645C96.659 12.2077 96.4947 12.5452 96.1659 12.7771C95.8401 13.009 95.3705 13.1249 94.7571 13.1249H92.5249ZM93.5948 11.0953V12.2796H94.7659C95.3148 12.2796 95.5892 12.083 95.5892 11.6896C95.5892 11.2934 95.3104 11.0953 94.7527 11.0953H93.5948ZM93.5948 10.3292H94.4753C95.0829 10.3292 95.3867 10.1502 95.3867 9.79208C95.3867 9.41639 95.099 9.22267 94.5237 9.21093H93.5948V10.3292Z" fill="#313B4D"/>
</svg>
