<svg width="92" height="28" viewBox="0 0 92 28" fill="none" xmlns="http://www.w3.org/2000/svg">
<path d="M88.3683 0.867188H4.16688C2.30704 0.867188 0.798828 2.37216 0.798828 4.22801V24.393C0.798828 26.2488 2.30704 27.7538 4.16688 27.7538H88.3683C90.2281 27.7538 91.7364 26.2488 91.7364 24.393V4.22801C91.7364 2.37216 90.2281 0.867188 88.3683 0.867188Z" fill="black"/>
<path d="M88.3683 1.40491C89.1187 1.40491 89.8381 1.70202 90.3689 2.23168C90.8997 2.76135 91.1975 3.47922 91.1975 4.22801V24.393C91.1975 25.1417 90.8997 25.8596 90.3689 26.3893C89.8381 26.919 89.1187 27.2161 88.3683 27.2161H4.16688C3.41648 27.2161 2.69706 26.919 2.16626 26.3893C1.63545 25.8596 1.33771 25.1417 1.33771 24.393V4.22801C1.33771 3.47922 1.63545 2.76135 2.16626 2.23168C2.69706 1.70202 3.41648 1.40491 4.16688 1.40491H88.3683ZM88.3683 0.867188H4.16688C3.27368 0.867188 2.41684 1.22141 1.78499 1.85123C1.15381 2.48172 0.798828 3.33672 0.798828 4.22801V24.393C0.798828 25.2842 1.15381 26.1393 1.78499 26.7697C2.41684 27.3996 3.27368 27.7538 4.16688 27.7538H88.3683C89.2615 27.7538 90.1183 27.3996 90.7502 26.7697C91.3814 26.1393 91.7364 25.2842 91.7364 24.393V4.22801C91.7364 3.33672 91.3814 2.48172 90.7502 1.85123C90.1183 1.22141 89.2615 0.867188 88.3683 0.867188Z" fill="#A6A6A6"/>
<path d="M22.4316 13.8473C22.4127 11.7831 24.125 10.7789 24.2032 10.7318C23.2339 9.32094 21.7304 9.12801 21.2023 9.11322C19.9399 8.98013 18.7153 9.86672 18.072 9.86672C17.4159 9.86672 16.4257 9.12601 15.3587 9.14752C13.9852 9.16903 12.6999 9.96217 11.9954 11.1943C10.541 13.7068 11.6255 17.399 13.0192 19.4296C13.7157 20.4244 14.5308 21.5348 15.5965 21.4959C16.6399 21.4528 17.0292 20.8324 18.2875 20.8324C19.5351 20.8324 19.9008 21.4959 20.9881 21.471C22.1069 21.4528 22.8122 20.4722 23.4844 19.4686C24.2901 18.3286 24.6134 17.2054 24.6262 17.1483C24.5999 17.1389 22.4525 16.3209 22.4316 13.8473Z" fill="white"/>
<path d="M20.3775 7.77699C20.9386 7.07727 21.3226 6.12478 21.2155 5.1582C20.4038 5.1945 19.3886 5.71881 18.804 6.40308C18.2866 7.00668 17.8245 7.99544 17.9438 8.92572C18.8558 8.99361 19.7921 8.46597 20.3775 7.77699Z" fill="white"/>
<path d="M37.5245 21.3531H36.0668L35.2686 18.8493H32.4933L31.7328 21.3531H30.3135L33.0632 12.8301H34.7613L37.5245 21.3531ZM35.0281 17.7994L34.306 15.5739C34.2292 15.346 34.0864 14.811 33.8755 13.9681H33.8493C33.7657 14.3304 33.6303 14.8661 33.4438 15.5739L32.7344 17.7994H35.0281Z" fill="white"/>
<path d="M44.5952 18.2056C44.5952 19.2508 44.3123 20.0769 43.7458 20.6832C43.2386 21.2229 42.6094 21.4932 41.8577 21.4932C41.0466 21.4932 40.464 21.2021 40.109 20.6207H40.0834V23.8578H38.7146V17.2316C38.7146 16.5742 38.6971 15.9001 38.6641 15.2084H39.8671L39.9439 16.1824H39.9695C40.4256 15.4484 41.118 15.082 42.0476 15.082C42.7744 15.082 43.3807 15.3684 43.8657 15.9417C44.3527 16.5151 44.5952 17.2699 44.5952 18.2056ZM43.2008 18.2553C43.2008 17.6571 43.0661 17.1637 42.7953 16.7759C42.4996 16.3713 42.1022 16.1689 41.6044 16.1689C41.2669 16.1689 40.9597 16.2819 40.6856 16.5037C40.4107 16.7282 40.2316 17.0206 40.1474 17.3829C40.1049 17.5522 40.0834 17.6907 40.0834 17.7996V18.824C40.0834 19.271 40.2208 19.6481 40.4956 19.9566C40.7704 20.2644 41.1275 20.4184 41.566 20.4184C42.082 20.4184 42.4828 20.2194 42.7697 19.8242C43.0574 19.4276 43.2008 18.9046 43.2008 18.2553Z" fill="white"/>
<path d="M51.6795 18.2056C51.6795 19.2508 51.3966 20.0769 50.8301 20.6832C50.3235 21.2229 49.6937 21.4932 48.9426 21.4932C48.1309 21.4932 47.5482 21.2021 47.1939 20.6207H47.1683V23.8578H45.8002V17.2316C45.8002 16.5742 45.7827 15.9001 45.749 15.2084H46.9528L47.0289 16.1824H47.0545C47.5105 15.4484 48.203 15.082 49.1332 15.082C49.8587 15.082 50.4656 15.3684 50.952 15.9417C51.4363 16.5151 51.6795 17.2699 51.6795 18.2056ZM50.2858 18.2553C50.2858 17.6571 50.1504 17.1637 49.8796 16.7759C49.5839 16.3713 49.1878 16.1689 48.6886 16.1689C48.3505 16.1689 48.0447 16.2819 47.7699 16.5037C47.495 16.7282 47.3158 17.0206 47.2316 17.3829C47.1905 17.5522 47.1683 17.6907 47.1683 17.7996V18.824C47.1683 19.271 47.3057 19.6481 47.5792 19.9566C47.854 20.2638 48.2104 20.4184 48.6509 20.4184C49.1662 20.4184 49.5677 20.2194 49.8547 19.8242C50.1416 19.4276 50.2858 18.9046 50.2858 18.2553Z" fill="white"/>
<path d="M59.5994 18.9629C59.5994 19.6882 59.3475 20.2777 58.8409 20.7334C58.2845 21.2308 57.5099 21.4795 56.5143 21.4795C55.5955 21.4795 54.8585 21.3027 54.3008 20.9485L54.6174 19.8105C55.2182 20.1728 55.8777 20.355 56.5958 20.355C57.1111 20.355 57.5126 20.238 57.8002 20.0061C58.0872 19.7742 58.2307 19.463 58.2307 19.0752C58.2307 18.729 58.1128 18.438 57.8757 18.2014C57.6399 17.9654 57.2465 17.7456 56.6975 17.5426C55.2021 16.9861 54.4544 16.1707 54.4544 15.0986C54.4544 14.3982 54.7164 13.8236 55.2411 13.3766C55.7632 12.9289 56.4604 12.7051 57.332 12.7051C58.1094 12.7051 58.7547 12.8402 59.27 13.1097L58.9285 14.2228C58.4469 13.962 57.9026 13.8309 57.2936 13.8309C56.812 13.8309 56.4362 13.9499 56.1667 14.1852C55.9383 14.3962 55.8245 14.653 55.8245 14.9568C55.8245 15.2942 55.9545 15.5725 56.2165 15.7917C56.4442 15.994 56.8585 16.2131 57.4594 16.449C58.1943 16.7448 58.7338 17.0896 59.0808 17.4855C59.427 17.8801 59.5994 18.3741 59.5994 18.9629Z" fill="white"/>
<path d="M64.1234 16.2314H62.6152V19.2151C62.6152 19.974 62.8806 20.3538 63.4134 20.3538C63.6579 20.3538 63.8607 20.3323 64.021 20.2899L64.0587 21.3271C63.7893 21.4272 63.4343 21.4783 62.9951 21.4783C62.4542 21.4783 62.0318 21.3136 61.7274 20.9849C61.4236 20.6556 61.2707 20.1037 61.2707 19.328V16.23H60.3721V15.2056H61.2707V14.0804L62.6152 13.6758V15.2056H64.1234V16.2314Z" fill="white"/>
<path d="M70.9293 18.2298C70.9293 19.1749 70.6585 19.9505 70.1176 20.5568C69.5511 21.1813 68.7987 21.4925 67.861 21.4925C66.9577 21.4925 66.2383 21.1934 65.7015 20.5951C65.1653 19.9969 64.8965 19.2421 64.8965 18.3319C64.8965 17.3795 65.1727 16.5998 65.7264 15.9928C66.2794 15.3859 67.0251 15.082 67.9628 15.082C68.8661 15.082 69.5936 15.3811 70.1425 15.98C70.6673 16.5608 70.9293 17.3109 70.9293 18.2298ZM69.5094 18.2741C69.5094 17.7075 69.3881 17.2215 69.1422 16.8162C68.8553 16.3256 68.4451 16.0809 67.9136 16.0809C67.3639 16.0809 66.9463 16.3262 66.6593 16.8162C66.4135 17.2222 66.2922 17.7156 66.2922 18.2997C66.2922 18.867 66.4135 19.353 66.6593 19.7576C66.955 20.2483 67.3686 20.493 67.9015 20.493C68.4242 20.493 68.8344 20.2429 69.1301 19.7449C69.382 19.3315 69.5094 18.8401 69.5094 18.2741Z" fill="white"/>
<path d="M75.3765 16.4089C75.2411 16.384 75.0969 16.3712 74.9454 16.3712C74.4637 16.3712 74.0912 16.5528 73.8298 16.9157C73.6014 17.2357 73.4876 17.6403 73.4876 18.129V21.354H72.1195L72.1323 17.1436C72.1323 16.4351 72.1154 15.7905 72.0811 15.2091H73.2734L73.3232 16.3847H73.361C73.5058 15.9807 73.7335 15.6554 74.0454 15.4114C74.3499 15.1916 74.6793 15.082 75.0343 15.082C75.1609 15.082 75.2747 15.0908 75.3765 15.1069V16.4089Z" fill="white"/>
<path d="M81.4966 17.9902C81.4966 18.2349 81.4811 18.4406 81.4467 18.6093H77.3417C77.3579 19.2162 77.5559 19.6807 77.9372 20.0007C78.2834 20.287 78.7307 20.4308 79.2797 20.4308C79.888 20.4308 80.4423 20.3341 80.9408 20.1398L81.155 21.0876C80.5723 21.3416 79.8846 21.4673 79.0904 21.4673C78.1359 21.4673 77.3861 21.187 76.8405 20.6265C76.2962 20.0665 76.0234 19.3137 76.0234 18.37C76.0234 17.4431 76.2767 16.6714 76.7846 16.0557C77.3161 15.399 78.0342 15.0703 78.9382 15.0703C79.8253 15.0703 80.4976 15.399 80.9536 16.0557C81.3153 16.578 81.4966 17.2233 81.4966 17.9902ZM80.1918 17.636C80.2012 17.2313 80.1116 16.8811 79.9263 16.5861C79.6892 16.2063 79.3255 16.0167 78.8358 16.0167C78.3885 16.0167 78.0247 16.2016 77.7465 16.5733C77.5188 16.8684 77.3835 17.2226 77.3417 17.6353H80.1918V17.636Z" fill="white"/>
<path d="M35.219 10.7468H34.5077V9.68747H31.6631V10.7468H30.9396L30.916 9.08992H31.2629C31.4347 8.92389 31.5721 8.68325 31.6752 8.36801C31.7782 8.05008 31.8442 7.69114 31.8739 7.29053L31.9864 5.37891H34.7091V9.08992H35.2574L35.219 10.7468ZM32.111 9.08992H33.9621V5.98252H32.7011L32.6304 7.19576C32.5765 8.00639 32.404 8.63822 32.111 9.08992Z" fill="white"/>
<path d="M35.9209 8.05643C35.9209 7.74321 35.9835 7.4609 36.1075 7.21019C36.2321 6.95745 36.4072 6.76454 36.6329 6.63011C36.8579 6.49433 37.1172 6.42578 37.4096 6.42578C37.8427 6.42578 38.1937 6.56492 38.4624 6.84319C38.7332 7.12147 38.8794 7.49046 38.9016 7.95022L38.9043 8.11894C38.9043 8.43418 38.843 8.71649 38.7204 8.96519C38.5998 9.21388 38.4261 9.40612 38.1984 9.5419C37.9734 9.67835 37.712 9.74625 37.4156 9.74625C36.963 9.74625 36.5999 9.59635 36.3271 9.29657C36.0563 8.99477 35.9209 8.5935 35.9209 8.09206V8.05643ZM36.6417 8.11894C36.6417 8.44829 36.7097 8.70641 36.8464 8.89395C36.9825 9.07946 37.1725 9.17222 37.4156 9.17222C37.6588 9.17222 37.8474 9.07744 37.9822 8.88789C38.1182 8.69902 38.1869 8.42142 38.1869 8.05643C38.1869 7.73313 38.1169 7.47635 37.9761 7.28748C37.838 7.09793 37.6487 7.00315 37.4096 7.00315C37.1745 7.00315 36.9879 7.09658 36.8491 7.28411C36.711 7.46963 36.6417 7.74791 36.6417 8.11894Z" fill="white"/>
<path d="M41.1353 9.17222C41.3151 9.17222 41.464 9.11979 41.5832 9.01561C41.7018 8.91075 41.7651 8.7817 41.7725 8.62777H42.4522C42.4441 8.82673 42.3815 9.01359 42.2649 9.18701C42.1484 9.35841 41.9901 9.49486 41.7907 9.59568C41.5907 9.69583 41.3751 9.74625 41.144 9.74625C40.6954 9.74625 40.3391 9.60106 40.0764 9.31136C39.8137 9.02166 39.6816 8.62104 39.6816 8.1102V8.03559C39.6816 7.54828 39.8123 7.15909 40.0737 6.8667C40.3344 6.57297 40.69 6.42578 41.1413 6.42578C41.5226 6.42578 41.8332 6.53735 42.0723 6.76051C42.3134 6.98165 42.4401 7.2727 42.4522 7.63365H41.7725C41.7651 7.45015 41.7018 7.29891 41.5832 7.18061C41.466 7.06231 41.3172 7.00315 41.1353 7.00315C40.9015 7.00315 40.7217 7.08784 40.595 7.2579C40.4691 7.42526 40.4044 7.6807 40.4024 8.02417V8.13978C40.4024 8.48661 40.465 8.74607 40.5897 8.91747C40.7163 9.08753 40.8982 9.17222 41.1353 9.17222Z" fill="white"/>
<path d="M45.8259 7.05767H44.7852V9.68854H44.0644V7.05767H43.0352V6.48633H45.8259V7.05767Z" fill="white"/>
<path d="M47.7688 8.65878L48.4209 6.48633H49.1895L47.9137 10.1738C47.7183 10.7129 47.3862 10.9818 46.9174 10.9818C46.813 10.9818 46.6971 10.9643 46.5705 10.9287V10.3721L46.7072 10.3809C46.8891 10.3809 47.0252 10.348 47.1161 10.2807C47.2091 10.2155 47.2825 10.1046 47.3357 9.94935L47.4394 9.67376L46.3125 6.48633H47.0892L47.7688 8.65878Z" fill="white"/>
<path d="M52.6309 9.68854H51.9108V7.06641H50.6592V9.68854H49.9385V6.48633H52.6309V9.68854Z" fill="white"/>
<path d="M56.4192 9.68854H55.6991V8.39528H54.4503V9.68854H53.7295V6.48633H54.4503V7.82125H55.6991V6.48633H56.4192V9.68854Z" fill="white"/>
<path d="M57.3584 8.05643C57.3584 7.74321 57.4204 7.4609 57.545 7.21019C57.6696 6.95745 57.8447 6.76454 58.0697 6.63011C58.2954 6.49433 58.554 6.42578 58.8471 6.42578C59.2795 6.42578 59.6305 6.56492 59.8999 6.84319C60.1707 7.12147 60.3169 7.49046 60.3384 7.95022L60.3418 8.11894C60.3418 8.43418 60.2805 8.71649 60.1579 8.96519C60.0373 9.21388 59.8629 9.40612 59.6359 9.5419C59.4102 9.67835 59.1495 9.74625 58.8525 9.74625C58.3998 9.74625 58.0374 9.59635 57.7646 9.29657C57.4938 8.99477 57.3584 8.5935 57.3584 8.09206V8.05643ZM58.0785 8.11894C58.0785 8.44829 58.1472 8.70641 58.2833 8.89395C58.42 9.07946 58.6093 9.17222 58.8525 9.17222C59.0956 9.17222 59.2849 9.07744 59.4189 8.88789C59.5557 8.69902 59.6237 8.42142 59.6237 8.05643C59.6237 7.73313 59.5537 7.47635 59.4136 7.28748C59.2748 7.09793 59.0862 7.00315 58.8471 7.00315C58.6113 7.00315 58.4247 7.09658 58.2866 7.28411C58.1479 7.46963 58.0785 7.74791 58.0785 8.11894Z" fill="white"/>
<path d="M63.125 9.68854V6.48633H64.4271C64.8656 6.48633 65.1997 6.56362 65.4294 6.71755C65.6584 6.86946 65.773 7.0886 65.773 7.37427C65.773 7.52215 65.7272 7.65591 65.6342 7.77421C65.5433 7.8905 65.4072 7.97989 65.2273 8.04307C65.4375 8.08676 65.6032 8.17415 65.7258 8.30656C65.8484 8.43898 65.9097 8.59493 65.9097 8.7744C65.9097 9.07217 65.7992 9.29869 65.5776 9.45463C65.358 9.61057 65.0414 9.68854 64.6285 9.68854H63.125ZM63.8457 8.32472V9.12056H64.6346C65.0044 9.12056 65.1889 8.98814 65.1889 8.72398C65.1889 8.4578 65.001 8.32472 64.6258 8.32472H63.8457ZM63.8457 7.80916H64.4385C64.8481 7.80916 65.0529 7.68883 65.0529 7.4482C65.0529 7.19614 64.8589 7.06574 64.4715 7.05767H63.8457V7.80916Z" fill="white"/>
</svg>
