<svg width="40" height="40" viewBox="0 0 40 40" fill="none" xmlns="http://www.w3.org/2000/svg">
<circle cx="20" cy="20" r="20" fill="#F2F4F5"/>
<path d="M38 20C38 29.9411 29.9411 38 20 38C10.0589 38 2 29.9411 2 20C2 10.0589 10.0589 2 20 2C29.9411 2 38 10.0589 38 20Z" fill="#3F759B"/>
<path d="M24.6117 13.6346H28.428C28.0459 17.3891 26.3236 20.8647 23.594 23.39C20.8424 25.9319 17.2692 27.3303 13.5698 27.3131H12.5903V23.6385L15.8214 22.4877L16.89 24.3446L17.6406 25.7308L19.0017 24.92C21.4388 23.4658 23.5156 21.4518 25.0697 19.0354L25.9983 17.5315L24.4463 16.6946L23.1742 16.0146L24.5608 13.6346M24.5608 12C24.2865 12.0021 24.0173 12.0766 23.779 12.2162C23.5406 12.3559 23.3412 12.5561 23.1997 12.7977L21.864 15.1777C21.7507 15.3679 21.6767 15.5801 21.6469 15.801C21.617 16.022 21.6317 16.2468 21.6902 16.4616C21.7487 16.6764 21.8497 16.8765 21.9869 17.0493C22.124 17.2222 22.2944 17.3641 22.4873 17.4662L23.7594 18.1462C22.3392 20.3506 20.4406 22.1859 18.213 23.5077L17.0936 21.6638C16.9625 21.4318 16.778 21.2364 16.5561 21.095C16.3342 20.9536 16.0819 20.8705 15.8214 20.8531C15.6438 20.8527 15.4674 20.8836 15.2999 20.9446L12.0051 22.0954C11.7051 22.2174 11.4483 22.4304 11.2688 22.706C11.0893 22.9816 10.9956 23.3068 11.0002 23.6385V27.3654C11.0002 27.7989 11.1677 28.2147 11.4659 28.5212C11.7641 28.8278 12.1686 29 12.5903 29H13.5444C17.6272 29.0011 21.5661 27.4496 24.6028 24.6443C27.6395 21.8389 29.5593 17.9779 29.9927 13.8046C30.0139 13.5765 29.9887 13.3464 29.9185 13.1289C29.8483 12.9114 29.7348 12.7114 29.5851 12.5415C29.4355 12.3717 29.253 12.2358 29.0494 12.1426C28.8458 12.0493 28.6255 12.0008 28.4026 12H24.5608Z" fill="white"/>
</svg>
