<svg width="26" height="24" viewBox="0 0 26 24" fill="none" xmlns="http://www.w3.org/2000/svg">
<path d="M22.64 4.97104C23.1792 4.97104 23.712 5.2202 24.079 5.64316L24.1595 5.74196C24.5388 6.20771 24.6621 6.81937 24.5196 7.3998L24.5189 7.40242L22.6117 15.3551L22.6116 15.3551L22.6105 15.3601C22.4088 16.2408 21.6205 16.8567 20.7326 16.8567H10.5864C9.70625 16.8567 8.93317 16.2482 8.7062 15.3505C8.70611 15.3501 8.70601 15.3498 8.70592 15.3494L5.60423 2.80291L5.60427 2.8029L5.60256 2.79636C5.44604 2.19805 4.92328 1.77742 4.30527 1.77742H1.7116C1.56216 1.77742 1.42285 1.64679 1.42285 1.4766C1.42285 1.30622 1.56234 1.17578 1.7116 1.17578H4.30527C5.18573 1.17578 5.95908 1.78485 6.1857 2.68312L6.18575 2.68332L6.66852 4.59355L6.76393 4.97104H7.15328H22.64ZM22.0335 15.2251L23.937 7.288C24.0625 6.84772 23.9241 6.4335 23.7049 6.1368L23.7046 6.13649C23.4586 5.80402 23.0561 5.59803 22.6411 5.59803H7.56055H6.92294L7.07497 6.21725L9.28723 15.2277L9.28717 15.2277L9.28908 15.2351C9.4456 15.8334 9.96836 16.254 10.5864 16.254H20.7337C21.3517 16.254 21.8744 15.8334 22.031 15.2351L22.0311 15.2351L22.0335 15.2251Z" fill="white" stroke="white"/>
<path d="M11.1189 18.8884H11.1516C12.3029 18.9066 13.2631 19.8823 13.2631 21.0739C13.2631 22.2767 12.2849 23.2587 11.1192 23.2579H11.1189C9.95291 23.2579 8.97461 22.2756 8.97461 21.0732C8.97461 19.8707 9.95282 18.8884 11.1189 18.8884ZM12.6619 21.0741V21.0733C12.6619 20.2102 11.9873 19.5142 11.1189 19.5142C10.2505 19.5142 9.57582 20.2102 9.57582 21.0733C9.57582 21.9363 10.2505 22.6323 11.1189 22.6323C11.9619 22.6323 12.6605 21.9107 12.6619 21.0741Z" fill="white" stroke="white"/>
<path d="M17.7236 21.0729C17.7236 19.8704 18.7018 18.8882 19.8679 18.8882C21.025 18.8882 21.9895 19.8631 22.0122 21.0771C22.0099 22.2776 21.0325 23.2576 19.8679 23.2576C18.7019 23.2576 17.7236 22.2753 17.7236 21.0729ZM18.3248 21.073C18.3248 21.936 18.9995 22.632 19.8679 22.632C20.7102 22.632 21.411 21.9111 21.411 21.073C21.411 20.21 20.7363 19.514 19.8679 19.514C18.9995 19.514 18.3248 20.21 18.3248 21.073Z" fill="white" stroke="white"/>
</svg>
