<svg width="21" height="20" viewBox="0 0 21 20" fill="none" xmlns="http://www.w3.org/2000/svg">
<path fill-rule="evenodd" clip-rule="evenodd" d="M0.382812 0.999512C0.382812 0.447227 0.830528 -0.000488281 1.38281 -0.000488281H2.90279C3.36056 -0.000488281 3.77712 0.264003 3.97184 0.678298L4.59281 1.99951H19.3828C19.648 1.99951 19.9024 2.10487 20.0899 2.2924C20.2775 2.47994 20.3828 2.73429 20.3828 2.99951C20.3828 3.16951 20.3328 3.33951 20.2628 3.49951L16.6828 9.96951C16.3428 10.5795 15.6828 10.9995 14.9328 10.9995H7.48281L6.58281 12.6295L6.55281 12.7495C6.55281 12.8158 6.57915 12.8794 6.62604 12.9263C6.67292 12.9732 6.73651 12.9995 6.80281 12.9995H17.3828C17.9351 12.9995 18.3828 13.4472 18.3828 13.9995C18.3828 14.5518 17.9351 14.9995 17.3828 14.9995H6.38281C5.27281 14.9995 4.38281 14.0995 4.38281 12.9995C4.38281 12.6495 4.47281 12.3195 4.62281 12.0395L5.98281 9.58951L2.38281 1.99951H1.38281C0.830528 1.99951 0.382812 1.5518 0.382812 0.999512ZM15.3828 8.99951L18.1628 3.99951H5.52281L7.88281 8.99951H15.3828Z" fill="#FAFBFC"/>
<path d="M8.38281 17.9995C8.38281 19.1041 7.48738 19.9995 6.38281 19.9995C5.27824 19.9995 4.38281 19.1041 4.38281 17.9995C4.38281 16.8949 5.27824 15.9995 6.38281 15.9995C7.48738 15.9995 8.38281 16.8949 8.38281 17.9995Z" fill="#FAFBFC"/>
<path d="M16.3828 19.9995C17.4874 19.9995 18.3828 19.1041 18.3828 17.9995C18.3828 16.8949 17.4874 15.9995 16.3828 15.9995C15.2782 15.9995 14.3828 16.8949 14.3828 17.9995C14.3828 19.1041 15.2782 19.9995 16.3828 19.9995Z" fill="#FAFBFC"/>
</svg>
