<svg width="11" height="7" viewBox="0 0 11 7" fill="none" xmlns="http://www.w3.org/2000/svg">
<path d="M5.5 5.17145L4.79289 5.87856L5.5 6.58566L6.20711 5.87856L5.5 5.17145ZM10.2071 1.87856C10.5976 1.48803 10.5976 0.854865 10.2071 0.464341C9.81658 0.0738167 9.18342 0.0738168 8.79289 0.464341L10.2071 1.87856ZM2.20711 0.464342C1.81658 0.0738179 1.18342 0.073818 0.792889 0.464343C0.4024 0.854867 0.4024 1.48803 0.792889 1.87856L2.20711 0.464342ZM6.20711 5.87856L10.2071 1.87856L8.79289 0.464341L4.79289 4.46434L6.20711 5.87856ZM6.20711 4.46434L2.20711 0.464342L0.792889 1.87856L4.79289 5.87856L6.20711 4.46434Z" fill="#293358"/>
</svg>
