<svg width="35" height="36" viewBox="0 0 35 36" fill="none" xmlns="http://www.w3.org/2000/svg">
<circle cx="17.1429" cy="17.9998" r="17.1429" fill="#4E6297"/>
<path d="M24.8576 12.7007C24.8576 11.4172 23.7251 10.2847 22.4416 10.2847H12.7021C11.4186 10.2847 10.2861 11.4172 10.2861 12.7007V22.4401C10.2861 23.7236 11.4186 24.8561 12.7021 24.8561H17.6096V19.3446H15.7976V16.9286H17.6096V15.9471C17.6096 14.2861 18.8176 12.8517 20.3276 12.8517H22.2906V15.2676H20.3276C20.1011 15.2676 19.8746 15.4941 19.8746 15.9471V16.9286H22.2906V19.3446H19.8746V24.8561H22.4416C23.7251 24.8561 24.8576 23.7236 24.8576 22.4401V12.7007Z" fill="white"/>
</svg>
