<svg width="135" height="40" viewBox="0 0 135 40" fill="none" xmlns="http://www.w3.org/2000/svg">
<path d="M130 0H5C2.23858 0 0 2.23858 0 5V35C0 37.7614 2.23858 40 5 40H130C132.761 40 135 37.7614 135 35V5C135 2.23858 132.761 0 130 0Z" fill="white"/>
<path d="M130 0.8C131.114 0.8 132.182 1.2425 132.97 2.03015C133.757 2.8178 134.2 3.88609 134.2 5V35C134.2 36.1139 133.757 37.1822 132.97 37.9698C132.182 38.7575 131.114 39.2 130 39.2H5C3.88609 39.2 2.8178 38.7575 2.03015 37.9698C1.2425 37.1822 0.8 36.1139 0.8 35V5C0.8 3.88609 1.2425 2.8178 2.03015 2.03015C2.8178 1.2425 3.88609 0.8 5 0.8H130ZM130 0H5C3.67392 0 2.40215 0.526784 1.46447 1.46447C0.526784 2.40215 0 3.67392 0 5V35C0 36.3261 0.526784 37.5978 1.46447 38.5355C2.40215 39.4732 3.67392 40 5 40H130C131.326 40 132.598 39.4732 133.536 38.5355C134.473 37.5978 135 36.3261 135 35V5C135 3.67392 134.473 2.40215 133.536 1.46447C132.598 0.526784 131.326 0 130 0Z" fill="white"/>
<path d="M68.1411 21.7491C67.3014 21.7531 66.4817 22.0057 65.7854 22.4751C65.0891 22.9445 64.5475 23.6096 64.2289 24.3865C63.9103 25.1635 63.829 26.0174 63.9952 26.8405C64.1614 27.6636 64.5678 28.419 65.1629 29.0113C65.7581 29.6037 66.5154 30.0065 67.3393 30.1689C68.1631 30.3313 69.0166 30.2459 69.7921 29.9237C70.5675 29.6014 71.2301 29.0567 71.6962 28.3582C72.1623 27.6598 72.4111 26.8389 72.4111 25.9991C72.4192 25.4371 72.3142 24.8791 72.1023 24.3585C71.8903 23.8379 71.5757 23.3652 71.1773 22.9686C70.7789 22.5721 70.3048 22.2598 69.7832 22.0503C69.2615 21.8408 68.7031 21.7383 68.1411 21.7491ZM68.1411 28.5791C67.6247 28.6153 67.1093 28.4952 66.662 28.2345C66.2148 27.9739 65.8563 27.5847 65.6331 27.1176C65.4099 26.6505 65.3325 26.127 65.4108 25.6153C65.489 25.1036 65.7195 24.6272 66.072 24.2482C66.4246 23.8691 66.8831 23.6049 67.3879 23.4899C67.8926 23.3749 68.4203 23.4144 68.9023 23.6032C69.3843 23.7921 69.7983 24.1216 70.0906 24.5488C70.3829 24.9761 70.5398 25.4815 70.5411 25.9991C70.5572 26.3272 70.5075 26.6551 70.3948 26.9636C70.2822 27.272 70.1089 27.5549 69.8852 27.7953C69.6615 28.0358 69.392 28.229 69.0924 28.3636C68.7929 28.4983 68.4694 28.5715 68.1411 28.5791ZM58.8311 21.7491C57.9909 21.7511 57.1702 22.0021 56.4726 22.4703C55.775 22.9384 55.2319 23.6029 54.9117 24.3797C54.5916 25.1564 54.5088 26.0106 54.674 26.8344C54.8391 27.6581 55.2446 28.4145 55.8394 29.0079C56.4342 29.6012 57.1915 30.005 58.0156 30.1682C58.8398 30.3314 59.6938 30.2466 60.4698 29.9247C61.2458 29.6027 61.909 29.058 62.3755 28.3593C62.8421 27.6606 63.0911 26.8393 63.0911 25.9991C63.0992 25.4371 62.9942 24.8791 62.7823 24.3585C62.5703 23.8379 62.2557 23.3652 61.8573 22.9686C61.4589 22.5721 60.9848 22.2598 60.4632 22.0503C59.9415 21.8408 59.3831 21.7383 58.8211 21.7491H58.8311ZM58.8311 28.5791C58.3144 28.6173 57.7982 28.499 57.3497 28.2397C56.9012 27.9804 56.5412 27.592 56.3164 27.1252C56.0917 26.6584 56.0127 26.1348 56.0898 25.6225C56.1668 25.1102 56.3963 24.6329 56.7484 24.2528C57.1005 23.8728 57.5588 23.6075 58.0637 23.4916C58.5687 23.3756 59.0968 23.4144 59.5794 23.6028C60.062 23.7913 60.4767 24.1206 60.7695 24.548C61.0623 24.9754 61.2197 25.4811 61.2211 25.9991C61.2372 26.3272 61.1874 26.6551 61.0748 26.9636C60.9622 27.272 60.7889 27.5549 60.5652 27.7953C60.3415 28.0358 60.072 28.229 59.7724 28.3636C59.4729 28.4983 59.1494 28.5715 58.8211 28.5791H58.8311ZM47.7411 23.0591V24.8591H52.0611C51.9933 25.7069 51.6409 26.5069 51.0611 27.1291C50.6289 27.5694 50.1093 27.9143 49.5358 28.1416C48.9623 28.3689 48.3475 28.4737 47.7311 28.4491C46.458 28.4491 45.2371 27.9434 44.337 27.0433C43.4368 26.1431 42.9311 24.9222 42.9311 23.6491C42.9311 22.3761 43.4368 21.1552 44.337 20.255C45.2371 19.3549 46.458 18.8491 47.7311 18.8491C48.9489 18.8293 50.1248 19.2932 51.0011 20.1391L52.2711 18.8691C51.6796 18.2702 50.9738 17.796 50.1957 17.4748C49.4176 17.1536 48.5829 16.9918 47.7411 16.9991C46.8521 16.9645 45.9652 17.1098 45.1337 17.4261C44.3022 17.7425 43.543 18.2234 42.9018 18.8402C42.2606 19.4569 41.7505 20.1967 41.4021 21.0153C41.0536 21.8339 40.874 22.7145 40.874 23.6041C40.874 24.4938 41.0536 25.3743 41.4021 26.1929C41.7505 27.0115 42.2606 27.7514 42.9018 28.3681C43.543 28.9849 44.3022 29.4658 45.1337 29.7822C45.9652 30.0985 46.8521 30.2437 47.7411 30.2091C48.597 30.2478 49.4513 30.1027 50.2465 29.7836C51.0417 29.4645 51.7593 28.9788 52.3511 28.3591C53.3988 27.2081 53.9581 25.6949 53.9111 24.1391C53.9143 23.7601 53.8808 23.3817 53.8111 23.0091L47.7411 23.0591ZM93.0511 24.4591C92.7903 23.6919 92.3026 23.0219 91.6526 22.538C91.0026 22.0541 90.2209 21.779 89.4111 21.7491C88.8641 21.7481 88.3227 21.8592 87.8203 22.0757C87.318 22.2921 86.8654 22.6093 86.4905 23.0077C86.1156 23.406 85.8263 23.877 85.6407 24.3915C85.455 24.9061 85.3769 25.4532 85.4111 25.9991C85.3989 26.5581 85.4995 27.1137 85.7069 27.6328C85.9143 28.152 86.2242 28.624 86.6181 29.0207C87.012 29.4174 87.4819 29.7307 87.9995 29.9417C88.5172 30.1528 89.0721 30.2573 89.6311 30.2491C90.3306 30.2529 91.0201 30.0831 91.6379 29.7551C92.2557 29.427 92.7825 28.9508 93.1711 28.3691L91.7211 27.3691C91.5047 27.7299 91.1983 28.0283 90.8319 28.2352C90.4656 28.442 90.0518 28.5502 89.6311 28.5491C89.1979 28.5657 88.7698 28.4514 88.4024 28.2214C88.035 27.9913 87.7454 27.656 87.5711 27.2591L93.2611 24.9091L93.0511 24.4591ZM87.2511 25.8791C87.2308 25.5698 87.2725 25.2596 87.3736 24.9666C87.4747 24.6736 87.6333 24.4037 87.84 24.1727C88.0468 23.9418 88.2975 23.7544 88.5776 23.6216C88.8577 23.4887 89.1614 23.4131 89.4711 23.3991C89.7936 23.3779 90.1153 23.4519 90.3962 23.6119C90.6771 23.7719 90.9048 24.0108 91.0511 24.2991L87.2511 25.8791ZM82.6311 29.9991H84.5011V17.4991H82.6311V29.9991ZM79.5711 22.6991H79.5011C79.2192 22.384 78.874 22.1321 78.488 21.9597C78.1019 21.7874 77.6838 21.6986 77.2611 21.6991C76.1683 21.7521 75.1377 22.2236 74.3831 23.0157C73.6284 23.8079 73.2074 24.86 73.2074 25.9541C73.2074 27.0482 73.6284 28.1004 74.3831 28.8926C75.1377 29.6847 76.1683 30.1561 77.2611 30.2091C77.6848 30.2163 78.105 30.1304 78.492 29.9577C78.879 29.7849 79.2235 29.5294 79.5011 29.2091H79.5611V29.8191C79.5611 31.4491 78.6911 32.3191 77.2911 32.3191C76.8248 32.3082 76.3723 32.1588 75.9912 31.8899C75.6101 31.621 75.3177 31.2448 75.1511 30.8091L73.5211 31.4891C73.8279 32.2355 74.3507 32.8732 75.0224 33.3204C75.6941 33.7676 76.4841 34.004 77.2911 33.9991C79.4811 33.9991 81.2911 32.7091 81.2911 29.5691V21.9991H79.5711V22.6991ZM77.4311 28.5791C76.786 28.5223 76.1857 28.2259 75.7483 27.7483C75.311 27.2708 75.0685 26.6467 75.0685 25.9991C75.0685 25.3516 75.311 24.7275 75.7483 24.25C76.1857 23.7724 76.786 23.476 77.4311 23.4191C77.7509 23.4356 78.0642 23.5158 78.3525 23.6552C78.6409 23.7945 78.8984 23.9902 79.1099 24.2306C79.3215 24.4711 79.4828 24.7514 79.5843 25.0551C79.6858 25.3589 79.7255 25.6798 79.7011 25.9991C79.7284 26.3198 79.6903 26.6427 79.5892 26.9483C79.4882 27.2539 79.3262 27.5358 79.113 27.7769C78.8999 28.0181 78.6401 28.2135 78.3493 28.3514C78.0585 28.4893 77.7427 28.5668 77.4211 28.5791H77.4311ZM101.811 17.4991H97.3411V29.9991H99.2111V25.2591H101.821C102.354 25.2974 102.889 25.2255 103.393 25.0479C103.897 24.8702 104.359 24.5907 104.75 24.2266C105.141 23.8626 105.453 23.4219 105.666 22.932C105.88 22.4421 105.99 21.9135 105.99 21.3791C105.99 20.8448 105.88 20.3162 105.666 19.8263C105.453 19.3364 105.141 18.8957 104.75 18.5316C104.359 18.1676 103.897 17.8881 103.393 17.7104C102.889 17.5328 102.354 17.4609 101.821 17.4991H101.811ZM101.811 23.4991H99.2011V19.2391H101.851C102.42 19.2391 102.966 19.4651 103.368 19.8674C103.77 20.2697 103.996 20.8153 103.996 21.3841C103.996 21.953 103.77 22.4986 103.368 22.9009C102.966 23.3032 102.42 23.5291 101.851 23.5291L101.811 23.4991ZM113.341 21.6991C112.66 21.6584 111.982 21.8175 111.391 22.1569C110.799 22.4962 110.32 23.001 110.011 23.6091L111.671 24.2991C111.835 23.9975 112.083 23.7499 112.384 23.5866C112.686 23.4232 113.029 23.3512 113.371 23.3791C113.608 23.3514 113.849 23.3712 114.079 23.4375C114.308 23.5037 114.522 23.615 114.709 23.7649C114.895 23.9147 115.049 24.1002 115.163 24.3104C115.277 24.5206 115.347 24.7513 115.371 24.9891V25.1191C114.77 24.8011 114.101 24.6363 113.421 24.6391C111.631 24.6391 109.821 25.6391 109.821 27.4491C109.839 27.8351 109.934 28.2136 110.1 28.5622C110.267 28.9108 110.501 29.2226 110.79 29.4789C111.079 29.7353 111.417 29.9311 111.783 30.0549C112.149 30.1786 112.536 30.2276 112.921 30.1991C113.392 30.233 113.863 30.1394 114.286 29.9282C114.708 29.7171 115.066 29.3962 115.321 28.9991H115.381V29.9991H117.181V25.1891C117.181 22.9991 115.521 21.7291 113.391 21.7291L113.341 21.6991ZM113.111 28.5491C112.501 28.5491 111.651 28.2391 111.651 27.4891C111.651 26.4891 112.711 26.1591 113.651 26.1591C114.245 26.1445 114.832 26.2895 115.351 26.5791C115.289 27.1205 115.032 27.6211 114.63 27.9886C114.228 28.3561 113.706 28.5659 113.161 28.5791L113.111 28.5491ZM123.741 21.9991L121.601 27.4191H121.541L119.321 21.9991H117.321L120.651 29.5791L118.751 33.7891H120.701L125.821 21.9991H123.741ZM106.931 29.9991H108.801V17.4991H106.931V29.9991Z" fill="#313B4D"/>
<path d="M42.1115 14.2699H41.3715V12.2699H42.0015C42.2887 11.9655 42.5057 11.6017 42.637 11.2043C42.7683 10.8069 42.8108 10.3855 42.7615 9.96987V6.99987H46.7615V12.2599H47.4315V14.2599H46.6915V12.9999H42.1115V14.2699ZM43.5015 9.99987C43.5481 10.8065 43.3494 11.6084 42.9315 12.2999H45.9315V7.73987H43.5015V9.99987ZM53.4115 12.2199C52.8269 12.8012 52.0359 13.1275 51.2115 13.1275C50.387 13.1275 49.5961 12.8012 49.0115 12.2199C48.4433 11.6184 48.1267 10.8223 48.1267 9.99487C48.1267 9.16744 48.4433 8.37135 49.0115 7.76987C49.2996 7.47962 49.6424 7.24925 50.02 7.09204C50.3975 6.93484 50.8025 6.85391 51.2115 6.85391C51.6205 6.85391 52.0254 6.93484 52.403 7.09204C52.7806 7.24925 53.1233 7.47962 53.4115 7.76987C53.982 8.3702 54.3001 9.16672 54.3001 9.99487C54.3001 10.823 53.982 11.6195 53.4115 12.2199ZM49.5815 11.7199C50.0144 12.151 50.6005 12.393 51.2115 12.393C51.8225 12.393 52.4086 12.151 52.8415 11.7199C53.2687 11.2489 53.5054 10.6358 53.5054 9.99987C53.5054 9.36398 53.2687 8.75086 52.8415 8.27987C52.4086 7.84875 51.8225 7.6067 51.2115 7.6067C50.6005 7.6067 50.0144 7.84875 49.5815 8.27987C49.1542 8.75086 48.9176 9.36398 48.9176 9.99987C48.9176 10.6358 49.1542 11.2489 49.5815 11.7199ZM58.1815 13.1299C57.7687 13.1381 57.3584 13.0627 56.9755 12.9081C56.5926 12.7536 56.245 12.5232 55.9535 12.2308C55.662 11.9383 55.4327 11.5899 55.2794 11.2065C55.1261 10.8231 55.052 10.4127 55.0615 9.99987C55.052 9.58708 55.1261 9.17662 55.2794 8.79323C55.4327 8.40983 55.662 8.06142 55.9535 7.76899C56.245 7.47655 56.5926 7.24614 56.9755 7.09162C57.3584 6.9371 57.7687 6.86167 58.1815 6.86987C58.5999 6.85951 59.0152 6.94411 59.3963 7.11731C59.7773 7.29051 60.1142 7.54781 60.3815 7.86987L59.8415 8.38987C59.644 8.13912 59.3893 7.93929 59.0988 7.80707C58.8083 7.67485 58.4903 7.61409 58.1715 7.62987C57.8645 7.62189 57.5592 7.67627 57.2738 7.78972C56.9885 7.90316 56.7292 8.07331 56.5115 8.28987C56.0779 8.76367 55.8374 9.38263 55.8374 10.0249C55.8374 10.6671 56.0779 11.2861 56.5115 11.7599C56.7292 11.9764 56.9885 12.1466 57.2738 12.26C57.5592 12.3735 57.8645 12.4279 58.1715 12.4199C58.5235 12.4167 58.8703 12.3352 59.1869 12.1813C59.5034 12.0273 59.7817 11.8048 60.0015 11.5299L60.5415 12.0699C60.2693 12.4 59.9279 12.6663 59.5415 12.8499C59.1146 13.0432 58.65 13.1389 58.1815 13.1299ZM63.6815 12.9999H62.9115V7.73987H61.2315V6.99987H65.3515V7.73987H63.6815V12.9999ZM70.6515 6.99987L68.3815 12.0599C68.2906 12.3592 68.109 12.6229 67.8618 12.8146C67.6146 13.0063 67.314 13.1164 67.0015 13.1299C66.7948 13.1272 66.5907 13.083 66.4015 12.9999L66.6015 12.2899C66.723 12.3606 66.8609 12.3986 67.0015 12.3999C67.1485 12.4109 67.2953 12.376 67.4215 12.2999C67.542 12.1979 67.6348 12.0672 67.6915 11.9199L67.9115 11.4399L65.9115 7.00987H66.8215L68.3015 10.4499L69.7415 6.99987H70.6515ZM71.5215 12.9999V6.99987H75.8615V12.9999H75.0915V7.73987H72.2915V12.9999H71.5215ZM77.2315 12.9999V6.99987H78.0015V9.56987H81.0015V6.99987H81.7715V12.9999H81.0015V10.2899H78.0015V12.9999H77.2315ZM88.0615 12.2199C87.4769 12.8012 86.6859 13.1275 85.8615 13.1275C85.037 13.1275 84.2461 12.8012 83.6615 12.2199C83.0933 11.6184 82.7767 10.8223 82.7767 9.99487C82.7767 9.16744 83.0933 8.37135 83.6615 7.76987C83.9496 7.47962 84.2924 7.24925 84.6699 7.09204C85.0475 6.93484 85.4525 6.85391 85.8615 6.85391C86.2705 6.85391 86.6754 6.93484 87.053 7.09204C87.4306 7.24925 87.7733 7.47962 88.0615 7.76987C88.632 8.3702 88.9501 9.16672 88.9501 9.99487C88.9501 10.823 88.632 11.6195 88.0615 12.2199ZM84.2315 11.7199C84.6644 12.151 85.2505 12.393 85.8615 12.393C86.4725 12.393 87.0585 12.151 87.4915 11.7199C87.9187 11.2489 88.1554 10.6358 88.1554 9.99987C88.1554 9.36398 87.9187 8.75086 87.4915 8.27987C87.0585 7.84875 86.4725 7.6067 85.8615 7.6067C85.2505 7.6067 84.6644 7.84875 84.2315 8.27987C83.8043 8.75086 83.5676 9.36398 83.5676 9.99987C83.5676 10.6358 83.8043 11.2489 84.2315 11.7199ZM92.0915 12.9999V6.99987H94.2615C94.712 6.99136 95.1487 7.15601 95.4815 7.45987C95.6486 7.60489 95.7818 7.78485 95.8716 7.98703C95.9615 8.18921 96.0058 8.40867 96.0015 8.62987C96.0062 8.89644 95.9294 9.15808 95.7815 9.37987C95.6347 9.5953 95.4302 9.7651 95.1915 9.86987C95.4815 9.9659 95.7359 10.1471 95.9215 10.3899C96.1138 10.6349 96.2161 10.9385 96.2115 11.2499C96.2166 11.4804 96.1708 11.7092 96.0775 11.9201C95.9842 12.1309 95.8456 12.3187 95.6715 12.4699C95.3233 12.7911 94.8651 12.9664 94.3915 12.9599L92.0915 12.9999ZM92.8615 9.56987H94.2615C94.3922 9.57533 94.5226 9.55221 94.6435 9.50213C94.7644 9.45204 94.8729 9.3762 94.9615 9.27987C95.05 9.19959 95.1215 9.1023 95.1716 8.9938C95.2217 8.8853 95.2495 8.76782 95.2532 8.64836C95.2569 8.52891 95.2366 8.40992 95.1933 8.29851C95.1501 8.18709 95.0848 8.08553 95.0015 7.99987C94.9179 7.90535 94.8146 7.83037 94.6988 7.78025C94.583 7.73013 94.4576 7.7061 94.3315 7.70987H92.9015L92.8615 9.56987ZM92.8615 12.2599H94.4115C94.5469 12.2644 94.6817 12.239 94.8061 12.1854C94.9306 12.1318 95.0417 12.0514 95.1315 11.9499C95.3078 11.767 95.4079 11.5239 95.4115 11.2699C95.4115 11.0047 95.3061 10.7503 95.1186 10.5628C94.931 10.3752 94.6767 10.2699 94.4115 10.2699H92.8915L92.8615 12.2599Z" fill="#313B4D"/>
<path fill-rule="evenodd" clip-rule="evenodd" d="M51.2115 6.95391C50.8157 6.95391 50.4238 7.03223 50.0584 7.18436C49.6934 7.33634 49.362 7.55897 49.0833 7.83945C48.5332 8.42225 48.2267 9.19339 48.2267 9.99487C48.2267 10.7963 48.5331 11.5673 49.0831 12.1501C49.6489 12.7121 50.414 13.0275 51.2115 13.0275C52.009 13.0275 52.7742 12.7121 53.34 12.15C53.8922 11.5683 54.2001 10.7969 54.2001 9.99487C54.2001 9.19272 53.8921 8.4212 53.3397 7.83955C53.061 7.55902 52.7296 7.33636 52.3646 7.18436C51.9992 7.03223 51.6073 6.95391 51.2115 6.95391ZM49.9815 6.99973C50.3713 6.83745 50.7893 6.75391 51.2115 6.75391C51.6337 6.75391 52.0517 6.83745 52.4415 6.99973C52.8312 7.162 53.185 7.3998 53.4825 7.69942L53.484 7.70097C54.0721 8.31989 54.4001 9.14108 54.4001 9.99487C54.4001 10.8487 54.0721 11.6698 53.484 12.2888L53.482 12.2908C52.8787 12.8908 52.0624 13.2275 51.2115 13.2275C50.3606 13.2275 49.5443 12.8908 48.941 12.2908L48.9388 12.2886C48.353 11.6685 48.0267 10.8479 48.0267 9.99487C48.0267 9.1419 48.353 8.32124 48.9388 7.7012L48.9405 7.6994C49.2379 7.39978 49.5918 7.162 49.9815 6.99973ZM85.8615 6.95391C85.4657 6.95391 85.0738 7.03223 84.7084 7.18436C84.3434 7.33633 84.012 7.55894 83.7334 7.8394C83.1832 8.42221 82.8767 9.19336 82.8767 9.99487C82.8767 10.7963 83.1831 11.5673 83.7331 12.1501C84.2989 12.7121 85.064 13.0275 85.8615 13.0275C86.6591 13.0275 87.4242 12.712 87.99 12.1499C88.5422 11.5683 88.8501 10.7969 88.8501 9.99487C88.8501 9.19274 88.5421 8.42123 87.9898 7.83958C87.7111 7.55904 87.3797 7.33636 87.0146 7.18436C86.6492 7.03223 86.2573 6.95391 85.8615 6.95391ZM84.6315 6.99973C85.0213 6.83745 85.4393 6.75391 85.8615 6.75391C86.2837 6.75391 86.7017 6.83745 87.0914 6.99973C87.4812 7.162 87.835 7.3998 88.1324 7.69942L88.134 7.70097C88.7221 8.3199 89.0501 9.14108 89.0501 9.99487C89.0501 10.8487 88.7221 11.6698 88.134 12.2888L88.132 12.2908C87.5287 12.8908 86.7124 13.2275 85.8615 13.2275C85.0106 13.2275 84.1943 12.8908 83.591 12.2908L83.5888 12.2886C83.003 11.6685 82.6767 10.8479 82.6767 9.99487C82.6767 9.1419 83.003 8.32124 83.5888 7.7012L83.5905 7.6994C83.8879 7.39978 84.2418 7.162 84.6315 6.99973ZM59.3549 7.20835C58.9876 7.0414 58.5873 6.95986 58.184 6.96984L58.1795 6.96995C57.7802 6.96202 57.3833 7.03488 57.013 7.18435C56.6426 7.33382 56.3063 7.55671 56.0243 7.83958C55.7423 8.12246 55.5205 8.45948 55.3722 8.83035C55.2239 9.20122 55.1522 9.59826 55.1615 9.99757L55.1616 10.0022C55.1523 10.4015 55.2239 10.7985 55.3722 11.1694C55.5205 11.5403 55.7423 11.8773 56.0243 12.1602C56.3063 12.443 56.6426 12.6659 57.013 12.8154C57.3833 12.9649 57.7802 13.0378 58.1795 13.0299L58.1815 13.1299L58.1834 13.0299C58.6367 13.0386 59.0863 12.9461 59.4994 12.7592C59.8449 12.5949 60.1531 12.3621 60.4055 12.0753L60.008 11.6778C59.7913 11.9252 59.527 12.127 59.2306 12.2712C58.901 12.4315 58.5398 12.5165 58.1732 12.5199C57.853 12.5281 57.5345 12.4713 57.2369 12.353C56.939 12.2345 56.6682 12.0569 56.441 11.8308L56.4376 11.8275C55.9872 11.3352 55.7374 10.6921 55.7374 10.0249C55.7374 9.35764 55.9873 8.7146 56.4377 8.22236L56.4409 8.21891C56.6681 7.9928 56.939 7.81523 57.2369 7.69679C57.5336 7.57881 57.8511 7.52202 58.1703 7.52981C58.5038 7.51391 58.8363 7.57775 59.1402 7.71605C59.4118 7.83964 59.6535 8.01949 59.8496 8.24324L60.244 7.86339C59.9968 7.58572 59.694 7.36248 59.3549 7.20835ZM58.1815 13.2299C57.7559 13.2381 57.3329 13.1602 56.9381 13.0009C56.5427 12.8413 56.1837 12.6033 55.8826 12.3014C55.5816 11.9994 55.3448 11.6396 55.1865 11.2436C55.0285 10.8484 54.9519 10.4254 54.9615 9.99987C54.9519 9.57436 55.0285 9.15131 55.1865 8.7561C55.3448 8.36017 55.5816 8.00038 55.8826 7.69839C56.1837 7.3964 56.5427 7.15845 56.9381 6.99888C57.3328 6.83959 57.7557 6.76169 58.1812 6.76985C58.614 6.75947 59.0435 6.84713 59.4377 7.02627C59.8325 7.20572 60.1815 7.47231 60.4584 7.80601L60.5178 7.87748L59.8313 8.53853L59.7629 8.45175C59.5753 8.21354 59.3334 8.02369 59.0574 7.89809C58.7814 7.77248 58.4793 7.71476 58.1764 7.72975L58.1689 7.73012C57.8754 7.7225 57.5835 7.7742 57.3108 7.88264C57.0387 7.9908 56.7914 8.15288 56.5837 8.35911C56.168 8.81425 55.9374 9.40841 55.9374 10.0249C55.9374 10.6413 56.168 11.2355 56.5837 11.6906C56.7914 11.8969 57.0387 12.0589 57.3108 12.1671C57.5835 12.2756 57.8755 12.3275 58.1689 12.3199L58.1706 12.3199C58.5077 12.3169 58.8399 12.2388 59.1431 12.0914C59.4463 11.9439 59.7129 11.7308 59.9234 11.4674L59.9932 11.3801L60.6764 12.0634L60.6186 12.1335C60.3372 12.4749 59.9841 12.7503 59.5844 12.9402L59.5827 12.941C59.1429 13.1402 58.6643 13.2389 58.1815 13.2299ZM95.4141 7.53372C95.1002 7.24712 94.6883 7.09183 94.2634 7.09986L94.2615 7.09987H92.1915V12.8981L94.3897 12.8599L94.3929 12.8599C94.8409 12.8661 95.2743 12.7002 95.6037 12.3964L95.6059 12.3943C95.7689 12.2528 95.8987 12.077 95.9861 11.8796C96.0735 11.6822 96.1163 11.4679 96.1115 11.2521L96.1115 11.2484C96.1158 10.9599 96.021 10.6786 95.8428 10.4516L95.842 10.4506C95.6687 10.2238 95.431 10.0545 95.1601 9.96481L94.9128 9.88297L95.1513 9.77831C95.3727 9.68115 95.5623 9.52374 95.6985 9.32404C95.835 9.11925 95.9058 8.87771 95.9015 8.63163V8.62791C95.9055 8.42136 95.8642 8.21643 95.7802 8.02765C95.6963 7.83885 95.572 7.67081 95.4159 7.5354L95.4141 7.53372ZM95.548 7.38522C95.1967 7.06482 94.736 6.89114 94.2606 6.89987H91.9915V13.1016L94.3901 13.0599L94.3917 13.0599C94.8899 13.0664 95.3717 12.8819 95.7382 12.5444C95.9228 12.3837 96.0699 12.1844 96.169 11.9606C96.268 11.7368 96.3166 11.4941 96.3115 11.2495L96.3115 11.2514L96.2115 11.2499L96.3115 11.2477L96.3115 11.2495C96.3161 10.9161 96.2063 10.5911 96.0005 10.3286C95.8476 10.1287 95.6508 9.96796 95.4266 9.85808C95.5992 9.74943 95.7484 9.60604 95.8641 9.43619L95.8647 9.43536C96.0236 9.19715 96.1062 8.91622 96.1015 8.62995L96.1015 8.63183L96.0015 8.62987L96.1015 8.62811L96.1015 8.62995C96.1058 8.39473 96.0586 8.16141 95.963 7.94642C95.8674 7.73125 95.7257 7.53968 95.548 7.38522ZM42.6615 6.89987H46.8615V12.1599H47.5315V14.3599H46.5915V13.0999H42.2115V14.3699H41.2715V12.1699H41.9579C42.2207 11.8826 42.4198 11.5429 42.5421 11.1729C42.6688 10.7894 42.7098 10.3828 42.6622 9.98166L42.6615 9.97579V6.89987ZM42.8615 7.09987V9.96401C42.9114 10.3923 42.8672 10.8263 42.732 11.2357C42.5961 11.647 42.3715 12.0235 42.0742 12.3385L42.0446 12.3699H41.4715V14.1699H42.0115V12.8999H46.7915V14.1599H47.3315V12.3599H46.6615V7.09987H42.8615ZM61.1315 6.89987H65.4515V7.83987H63.7815V13.0999H62.8115V7.83987H61.1315V6.89987ZM61.3315 7.09987V7.63987H63.0115V12.8999H63.5815V7.63987H65.2515V7.09987H61.3315ZM69.6749 6.89987H70.8059L68.4753 12.0951C68.3778 12.4117 68.185 12.6906 67.9231 12.8936C67.6595 13.098 67.339 13.2154 67.0058 13.2298L67.0002 13.23C66.7801 13.2272 66.5628 13.18 66.3613 13.0914L66.2817 13.0564L66.5402 12.1385L66.6518 12.2035C66.7583 12.2655 66.8792 12.2987 67.0024 12.2999L67.009 12.2999C67.1327 12.3093 67.2561 12.2809 67.363 12.2183C67.4677 12.1279 67.5485 12.0131 67.5982 11.884L67.6004 11.8781L67.8016 11.4396L65.7566 6.90987H66.8873L68.3001 10.1936L69.6749 6.89987ZM69.8081 7.09987L68.3029 10.7061L66.7556 7.10987H66.0664L68.0213 11.4402L67.7837 11.9588C67.7209 12.1206 67.6186 12.2641 67.4861 12.3762L67.48 12.3814L67.4731 12.3855C67.3301 12.4718 67.1639 12.5117 66.9973 12.4998C66.883 12.4983 66.7704 12.4754 66.6652 12.4324L66.522 12.9408C66.6749 12.9973 66.8366 13.0275 67 13.0298C67.2908 13.0168 67.5705 12.914 67.8006 12.7356C68.0314 12.5566 68.2009 12.3103 68.2858 12.0308L68.2876 12.0247L70.497 7.09987H69.8081ZM71.4215 6.89987H75.9615V13.0999H74.9915V7.83987H72.3915V13.0999H71.4215V6.89987ZM71.6215 7.09987V12.8999H72.1915V7.63987H75.1915V12.8999H75.7615V7.09987H71.6215ZM77.1315 6.89987H78.1015V9.46987H80.9015V6.89987H81.8715V13.0999H80.9015V10.3899H78.1015V13.0999H77.1315V6.89987ZM77.3315 7.09987V12.8999H77.9015V10.1899H81.1015V12.8999H81.6715V7.09987H81.1015V9.66987H77.9015V7.09987H77.3315ZM49.5109 8.20902C49.9626 7.75923 50.5741 7.5067 51.2115 7.5067C51.8489 7.5067 52.4604 7.75923 52.912 8.20902L52.9156 8.2126C53.3596 8.70198 53.6054 9.33914 53.6054 9.99987C53.6054 10.6606 53.3595 11.2977 52.9156 11.7871L52.9121 11.7908C52.4605 12.2406 51.8489 12.493 51.2115 12.493C50.5741 12.493 49.9626 12.2405 49.5109 11.7907L49.5815 11.7199L49.5074 11.7871C49.0635 11.2977 48.8176 10.6606 48.8176 9.99987C48.8176 9.33914 49.0635 8.70206 49.5074 8.21269L49.5109 8.20902ZM49.6538 11.6508C50.0679 12.0621 50.6278 12.293 51.2115 12.293C51.7952 12.293 52.3551 12.0621 52.7691 11.6508C53.1786 11.1985 53.4054 10.6101 53.4054 9.99987C53.4054 9.38967 53.1786 8.80128 52.7691 8.34895C52.3551 7.9376 51.7952 7.7067 51.2115 7.7067C50.6278 7.7067 50.0679 7.9376 49.6538 8.34895C49.2444 8.80128 49.0176 9.38967 49.0176 9.99987C49.0176 10.6101 49.2444 11.1985 49.6538 11.6508ZM84.1609 8.20902C84.6126 7.75923 85.2241 7.5067 85.8615 7.5067C86.4989 7.5067 87.1104 7.75923 87.562 8.20902L87.5656 8.2126C88.0096 8.70198 88.2554 9.33914 88.2554 9.99987C88.2554 10.6606 88.0095 11.2977 87.5655 11.7871L87.5621 11.7908C87.1105 12.2406 86.4989 12.493 85.8615 12.493C85.2241 12.493 84.6126 12.2405 84.1609 11.7907L84.2315 11.7199L84.1574 11.7871C83.7135 11.2977 83.4676 10.6606 83.4676 9.99987C83.4676 9.33914 83.7135 8.70206 84.1574 8.21269L84.1609 8.20902ZM84.3039 11.6508C84.7179 12.0621 85.2778 12.293 85.8615 12.293C86.4452 12.293 87.0051 12.0621 87.4191 11.6508C87.8286 11.1985 88.0554 10.6101 88.0554 9.99987C88.0554 9.38967 87.8286 8.80127 87.4191 8.34893C87.0051 7.9376 86.4452 7.7067 85.8615 7.7067C85.2778 7.7067 84.7179 7.9376 84.3039 8.34893C83.8944 8.80127 83.6676 9.38967 83.6676 9.99987C83.6676 10.6101 83.8944 11.1985 84.3039 11.6508ZM94.33 7.60987C94.4703 7.60591 94.6097 7.63273 94.7385 7.68848C94.8671 7.74411 94.9818 7.8272 95.0749 7.9319C95.1668 8.02681 95.2387 8.13915 95.2865 8.26232C95.3347 8.38625 95.3573 8.51861 95.3532 8.65149C95.349 8.78436 95.3181 8.91505 95.2624 9.03574C95.2073 9.15506 95.1289 9.26219 95.032 9.3509C94.9341 9.45634 94.8147 9.53944 94.6818 9.59451C94.5481 9.64989 94.404 9.6756 94.2595 9.66987H92.7593L92.8036 7.60987H94.33ZM94.6591 7.87202C94.5567 7.82773 94.4459 7.8065 94.3345 7.80983L94.3315 7.80987H92.9994L92.9637 9.46987H94.2657C94.3819 9.47472 94.4978 9.45426 94.6052 9.40974C94.7127 9.36522 94.8091 9.2978 94.8879 9.21218L94.8909 9.20884L94.8943 9.20579C94.9729 9.13453 95.0363 9.04817 95.0808 8.95186C95.1253 8.85556 95.1499 8.75128 95.1533 8.64524C95.1566 8.53921 95.1385 8.43359 95.1001 8.33469C95.0617 8.23579 95.0038 8.14564 94.9298 8.06961L94.9265 8.06618C94.8526 7.98265 94.7614 7.91631 94.6591 7.87202ZM43.4015 7.63987H46.0315V12.3999H42.7542L42.8459 12.2481C43.2534 11.5739 43.4471 10.7921 43.4017 10.0056L43.4013 9.99987L43.4015 7.63987ZM43.6015 7.83987V9.997C43.6453 10.7645 43.4725 11.5276 43.1044 12.1999H45.8315V7.83987H43.6015ZM92.793 10.1699H94.4115C94.7032 10.1699 94.983 10.2858 95.1893 10.4921C95.3956 10.6983 95.5115 10.9781 95.5115 11.2699L95.5115 11.2713C95.5075 11.55 95.398 11.8168 95.2049 12.0178C95.1056 12.1295 94.983 12.2181 94.8457 12.2772C94.7082 12.3364 94.5594 12.3646 94.4098 12.3599H92.76L92.793 10.1699ZM92.99 10.3699L92.963 12.1599H94.4148C94.5355 12.1639 94.6557 12.1413 94.7666 12.0935C94.8775 12.0458 94.9766 11.9741 95.0566 11.8836L95.0594 11.8804C95.2179 11.716 95.3081 11.4975 95.3115 11.2691C95.3113 11.0307 95.2165 10.8021 95.0479 10.6335C94.8791 10.4647 94.6502 10.3699 94.4115 10.3699H92.99Z" fill="#313B4D"/>
<path d="M10.4401 7.5407C10.1142 7.93181 9.9497 8.4325 9.98014 8.9407V31.0607C9.9497 31.5689 10.1142 32.0696 10.4401 32.4607L10.5101 32.5307L22.9001 20.1507V19.8607L10.5101 7.4707L10.4401 7.5407Z" fill="url(#paint0_linear_1_7508)"/>
<path d="M27.0004 24.2807L22.9004 20.1507V19.8607L27.0004 15.7207L27.0904 15.7707L32.0004 18.5607C33.4004 19.3507 33.4004 20.6507 32.0004 21.4507L27.1104 24.2307L27.0004 24.2807Z" fill="url(#paint1_linear_1_7508)"/>
<path d="M27.1214 24.22L22.9014 20L10.4414 32.46C10.7268 32.7109 11.0908 32.8541 11.4706 32.8651C11.8504 32.876 12.2221 32.754 12.5214 32.52L27.1314 24.22" fill="url(#paint2_linear_1_7508)"/>
<path d="M27.1207 15.7805L12.5107 7.48054C12.2113 7.24655 11.8396 7.12449 11.4598 7.13544C11.0801 7.1464 10.716 7.28969 10.4307 7.54054L22.9007 20.0005L27.1207 15.7805Z" fill="url(#paint3_linear_1_7508)"/>
<path opacity="0.2" d="M27.0014 24.1309L12.5114 32.3809C12.2227 32.5967 11.8719 32.7134 11.5114 32.7134C11.1509 32.7134 10.8001 32.5967 10.5114 32.3809L10.4414 32.4509L10.5114 32.5209C10.7995 32.7383 11.1505 32.8559 11.5114 32.8559C11.8723 32.8559 12.2234 32.7383 12.5114 32.5209L27.1214 24.2209L27.0014 24.1309Z" fill="black"/>
<path opacity="0.12" d="M10.4401 32.32C10.1142 31.9289 9.9497 31.4282 9.98014 30.92V31.07C9.9497 31.5782 10.1142 32.0789 10.4401 32.47L10.5101 32.4L10.4401 32.32ZM32.0001 21.3L27.0001 24.13L27.0901 24.22L32.0001 21.44C32.2787 21.3091 32.5179 21.1071 32.6935 20.8543C32.869 20.6014 32.9748 20.3068 33.0001 20C32.9439 20.2787 32.8245 20.5408 32.6512 20.7662C32.4778 20.9915 32.2551 21.1742 32.0001 21.3Z" fill="black"/>
<path opacity="0.25" d="M12.5107 7.62043L32.0007 18.7004C32.2557 18.8263 32.4784 19.0089 32.6517 19.2343C32.8251 19.4596 32.9445 19.7217 33.0007 20.0004C32.9754 19.6937 32.8696 19.399 32.694 19.1462C32.5185 18.8933 32.2793 18.6913 32.0007 18.5604L12.5107 7.48043C11.1107 6.69043 9.9707 7.35043 9.9707 8.95043V9.10043C10.0007 7.49043 11.1207 6.83043 12.5107 7.62043Z" fill="white"/>
<defs>
<linearGradient id="paint0_linear_1_7508" x1="21.8001" y1="8.7107" x2="5.02014" y2="25.4907" gradientUnits="userSpaceOnUse">
<stop stop-color="#00A0FF"/>
<stop offset="0.01" stop-color="#00A1FF"/>
<stop offset="0.26" stop-color="#00BEFF"/>
<stop offset="0.51" stop-color="#00D2FF"/>
<stop offset="0.76" stop-color="#00DFFF"/>
<stop offset="1" stop-color="#00E3FF"/>
</linearGradient>
<linearGradient id="paint1_linear_1_7508" x1="33.8304" y1="20.0007" x2="9.6404" y2="20.0007" gradientUnits="userSpaceOnUse">
<stop stop-color="#FFE000"/>
<stop offset="0.41" stop-color="#FFBD00"/>
<stop offset="0.78" stop-color="#FFA500"/>
<stop offset="1" stop-color="#FF9C00"/>
</linearGradient>
<linearGradient id="paint2_linear_1_7508" x1="24.8314" y1="22.3" x2="2.0714" y2="45.05" gradientUnits="userSpaceOnUse">
<stop stop-color="#FF3A44"/>
<stop offset="1" stop-color="#C31162"/>
</linearGradient>
<linearGradient id="paint3_linear_1_7508" x1="7.30066" y1="0.180538" x2="17.4607" y2="10.3405" gradientUnits="userSpaceOnUse">
<stop stop-color="#32A071"/>
<stop offset="0.07" stop-color="#2DA771"/>
<stop offset="0.48" stop-color="#15CF74"/>
<stop offset="0.8" stop-color="#06E775"/>
<stop offset="1" stop-color="#00F076"/>
</linearGradient>
</defs>
</svg>
