<svg width="92" height="28" viewBox="0 0 92 28" fill="none" xmlns="http://www.w3.org/2000/svg">
<path d="M88.0411 0.867188H3.83974C1.9799 0.867188 0.47168 2.37216 0.47168 4.22801V24.393C0.47168 26.2488 1.9799 27.7538 3.83974 27.7538H88.0411C89.901 27.7538 91.4092 26.2488 91.4092 24.393V4.22801C91.4092 2.37216 89.901 0.867188 88.0411 0.867188Z" fill="black"/>
<path d="M88.0411 1.40491C88.7915 1.40491 89.5109 1.70202 90.0418 2.23168C90.5726 2.76135 90.8703 3.47922 90.8703 4.22801V24.393C90.8703 25.1417 90.5726 25.8596 90.0418 26.3893C89.5109 26.919 88.7915 27.2161 88.0411 27.2161H3.83974C3.08933 27.2161 2.36992 26.919 1.83911 26.3893C1.3083 25.8596 1.01057 25.1417 1.01057 24.393V4.22801C1.01057 3.47922 1.3083 2.76135 1.83911 2.23168C2.36992 1.70202 3.08933 1.40491 3.83974 1.40491H88.0411ZM88.0411 0.867188H3.83974C2.94653 0.867188 2.0897 1.22141 1.45785 1.85123C0.826676 2.48172 0.47168 3.33672 0.47168 4.22801V24.393C0.47168 25.2842 0.826676 26.1393 1.45785 26.7697C2.0897 27.3996 2.94653 27.7538 3.83974 27.7538H88.0411C88.9343 27.7538 89.7912 27.3996 90.423 26.7697C91.0542 26.1393 91.4092 25.2842 91.4092 24.393V4.22801C91.4092 3.33672 91.0542 2.48172 90.423 1.85123C89.7912 1.22141 88.9343 0.867188 88.0411 0.867188Z" fill="#A6A6A6"/>
<path d="M46.3732 15.4851C45.8074 15.4878 45.2557 15.6579 44.7862 15.9731C44.3173 16.2884 43.9523 16.736 43.738 17.2583C43.5232 17.7799 43.4686 18.3539 43.5804 18.9071C43.6922 19.461 43.9664 19.9684 44.3672 20.3664C44.768 20.765 45.2779 21.0352 45.833 21.1447C46.388 21.2536 46.9633 21.1965 47.4853 20.98C48.0074 20.7629 48.454 20.3973 48.7679 19.9274C49.0818 19.4583 49.2495 18.9064 49.2495 18.3418C49.2549 17.964 49.1842 17.589 49.0414 17.2388C48.8986 16.8893 48.6871 16.5713 48.4183 16.3051C48.1502 16.0383 47.8309 15.8286 47.4793 15.6874C47.1283 15.5469 46.7518 15.4777 46.3732 15.4851ZM46.3732 20.076C46.0256 20.1002 45.678 20.0195 45.3769 19.8448C45.0758 19.6693 44.834 19.4079 44.6838 19.0939C44.5336 18.7794 44.481 18.4278 44.5343 18.0837C44.5868 17.7402 44.7417 17.4196 44.9795 17.1648C45.2173 16.9101 45.5258 16.7326 45.866 16.6553C46.2062 16.578 46.5612 16.6043 46.8858 16.7313C47.2105 16.8583 47.4894 17.0801 47.6868 17.3672C47.8834 17.6542 47.9892 17.9936 47.9899 18.3418C48.0007 18.5623 47.967 18.7827 47.8915 18.9904C47.8154 19.1975 47.6989 19.3877 47.548 19.549C47.3978 19.711 47.2159 19.8407 47.0138 19.9315C46.8124 20.0215 46.5942 20.0713 46.3732 20.076ZM40.1019 15.4851C39.5361 15.4864 38.983 15.6552 38.5135 15.9697C38.0433 16.2843 37.6776 16.7313 37.462 17.2536C37.2465 17.7752 37.1905 18.3499 37.3017 18.9031C37.4128 19.4569 37.6863 19.9651 38.0864 20.3644C38.4872 20.7629 38.9972 21.0345 39.5529 21.1441C40.108 21.2536 40.6832 21.1972 41.2059 20.9807C41.7287 20.7643 42.1753 20.3979 42.4892 19.9281C42.8038 19.4589 42.9715 18.9064 42.9715 18.3418C42.9769 17.964 42.9061 17.589 42.7633 17.2388C42.6205 16.8893 42.409 16.5713 42.1402 16.3051C41.8721 16.0383 41.5529 15.8286 41.2012 15.6874C40.8503 15.5469 40.4737 15.4777 40.0952 15.4851H40.1019ZM40.1019 20.076C39.7536 20.1015 39.4061 20.0222 39.1043 19.8481C38.8018 19.6734 38.5593 19.4126 38.4078 19.0987C38.2569 18.7848 38.2037 18.4332 38.2555 18.0884C38.3074 17.7442 38.4616 17.4236 38.6988 17.1682C38.9359 16.9128 39.2451 16.734 39.5852 16.6567C39.9254 16.5787 40.2811 16.6043 40.6058 16.7313C40.9311 16.8577 41.2107 17.0795 41.408 17.3665C41.6047 17.6535 41.7112 17.9936 41.7118 18.3418C41.7226 18.5623 41.6889 18.7827 41.6135 18.9904C41.5374 19.1975 41.4208 19.3877 41.2699 19.549C41.1197 19.711 40.9378 19.8407 40.7358 19.9315C40.5343 20.0215 40.3161 20.0713 40.0952 20.076H40.1019ZM32.6315 16.3656V17.5755H35.5415C35.4957 18.1455 35.2586 18.6833 34.8679 19.1014C34.5769 19.3971 34.2267 19.629 33.8407 19.7823C33.454 19.9348 33.0398 20.0054 32.6248 19.9886C31.7673 19.9886 30.9448 19.6485 30.3386 19.0436C29.7323 18.4386 29.3915 17.6179 29.3915 16.7622C29.3915 15.9065 29.7323 15.0858 30.3386 14.4809C30.9448 13.876 31.7673 13.5358 32.6248 13.5358C33.4453 13.5224 34.2374 13.8343 34.8275 14.4029L35.683 13.5493C35.2849 13.1466 34.8093 12.828 34.2853 12.6123C33.7612 12.3965 33.1987 12.2876 32.6315 12.2923C32.0327 12.2695 31.4352 12.3669 30.8754 12.5793C30.315 12.7917 29.8037 13.1151 29.3719 13.5298C28.9402 13.9445 28.5959 14.4419 28.3615 14.9917C28.1271 15.5422 28.0059 16.1338 28.0059 16.732C28.0059 17.3302 28.1271 17.9217 28.3615 18.4722C28.5959 19.0227 28.9402 19.5194 29.3719 19.9342C29.8037 20.3489 30.315 20.6722 30.8754 20.8846C31.4352 21.097 32.0327 21.1951 32.6315 21.1716C33.2082 21.1978 33.7834 21.1004 34.3189 20.886C34.8551 20.6709 35.3381 20.3448 35.7369 19.9281C36.4428 19.1544 36.8194 18.1375 36.7877 17.0916C36.7897 16.8368 36.7675 16.5828 36.7204 16.332L32.6315 16.3656ZM63.1529 17.3067C62.9771 16.7911 62.649 16.3408 62.2112 16.0154C61.7733 15.6901 61.2465 15.5053 60.7009 15.4851C60.3325 15.4844 59.968 15.559 59.6292 15.7049C59.2911 15.8501 58.9859 16.0632 58.7333 16.3314C58.4814 16.5989 58.286 16.9155 58.1614 17.2616C58.0361 17.6071 57.9836 17.9748 58.0065 18.3418C57.9984 18.7175 58.0664 19.0913 58.2059 19.4401C58.3453 19.789 58.5541 20.1062 58.8195 20.3731C59.0849 20.6393 59.4015 20.8503 59.7505 20.9921C60.0987 21.134 60.4726 21.2039 60.8491 21.1985C61.3206 21.2012 61.7848 21.0869 62.2011 20.8665C62.6173 20.646 62.9717 20.326 63.2337 19.9348L62.257 19.2627C62.1115 19.5053 61.9047 19.7056 61.6581 19.8448C61.4116 19.9839 61.1327 20.0565 60.8491 20.0558C60.5574 20.0672 60.2691 19.9899 60.0212 19.8353C59.774 19.6807 59.5787 19.4556 59.4615 19.1887L63.2943 17.6091L63.1529 17.3067ZM59.2459 18.2611C59.2324 18.0535 59.2601 17.8451 59.3288 17.6481C59.3968 17.4512 59.5032 17.2697 59.6427 17.1144C59.7821 16.9592 59.9512 16.8328 60.1398 16.7441C60.3284 16.6547 60.5325 16.6036 60.7413 16.5942C60.9589 16.5801 61.1751 16.6298 61.3644 16.7374C61.5537 16.8449 61.7073 17.0055 61.8056 17.1991L59.2459 18.2611ZM56.1338 21.0305H57.3935V12.6284H56.1338V21.0305ZM54.0726 16.1237H54.0254C53.8355 15.9119 53.6031 15.7425 53.3431 15.6269C53.0831 15.5106 52.8015 15.4515 52.5165 15.4515C51.7803 15.4871 51.0865 15.8044 50.5779 16.3367C50.0693 16.8691 49.7857 17.5762 49.7857 18.3115C49.7857 19.0469 50.0693 19.754 50.5779 20.2871C51.0865 20.8194 51.7803 21.136 52.5165 21.1716C52.8022 21.1763 53.0851 21.1185 53.3458 21.0029C53.6064 20.8866 53.8382 20.7145 54.0254 20.4994H54.0658V20.9095C54.0658 22.0051 53.4798 22.5899 52.5368 22.5899C52.2229 22.5825 51.9177 22.4823 51.6611 22.3015C51.4044 22.1207 51.2077 21.868 51.0952 21.5749L49.9972 22.032C50.204 22.5334 50.5563 22.9623 51.0083 23.2627C51.461 23.5639 51.9932 23.7225 52.5368 23.7191C54.012 23.7191 55.2312 22.852 55.2312 20.7414V15.6531H54.0726V16.1237ZM52.6311 20.076C52.1966 20.0377 51.7924 19.8387 51.4974 19.5174C51.203 19.1968 51.0393 18.7774 51.0393 18.3418C51.0393 17.9069 51.203 17.4875 51.4974 17.1662C51.7924 16.8449 52.1966 16.6459 52.6311 16.6076C52.8466 16.6191 53.0575 16.6728 53.2521 16.7663C53.4461 16.8604 53.6192 16.9914 53.762 17.1534C53.9042 17.3147 54.0133 17.5029 54.0813 17.7073C54.1501 17.9116 54.1763 18.1274 54.1602 18.3418C54.1783 18.5576 54.1527 18.7747 54.0847 18.9797C54.0167 19.1854 53.9076 19.3749 53.7641 19.5369C53.6206 19.6989 53.4455 19.8306 53.2494 19.9227C53.0534 20.0155 52.8412 20.0679 52.6243 20.076H52.6311ZM69.0537 12.6284H66.0427V21.0305H67.3023V17.8444H69.0604C69.4195 17.87 69.7799 17.8216 70.1194 17.7026C70.4589 17.5829 70.7701 17.3954 71.0334 17.1507C71.2968 16.9061 71.507 16.6096 71.6505 16.2803C71.7946 15.9509 71.8687 15.5953 71.8687 15.2364C71.8687 14.8775 71.7946 14.5219 71.6505 14.1925C71.507 13.8632 71.2968 13.5674 71.0334 13.3227C70.7701 13.0781 70.4589 12.8899 70.1194 12.7702C69.7799 12.6513 69.4195 12.6029 69.0604 12.6284H69.0537ZM69.0537 16.6614H67.2956V13.798H69.0806C69.4639 13.798 69.8317 13.9499 70.1025 14.2201C70.3733 14.491 70.5255 14.8573 70.5255 15.2398C70.5255 15.6222 70.3733 15.9892 70.1025 16.2594C69.8317 16.5297 69.4639 16.6816 69.0806 16.6816L69.0537 16.6614ZM76.8204 15.4515C76.3617 15.4239 75.905 15.5315 75.5069 15.7593C75.1081 15.9872 74.7854 16.3266 74.5773 16.7353L75.6955 17.1991C75.806 16.9961 75.973 16.8301 76.1758 16.7206C76.3792 16.6103 76.6103 16.5619 76.8406 16.5807C77.0003 16.5619 77.1626 16.5753 77.3175 16.6197C77.4718 16.6647 77.616 16.7394 77.7419 16.8402C77.8672 16.941 77.971 17.0654 78.0478 17.2065C78.1245 17.3483 78.1717 17.5029 78.1879 17.6629V17.7503C77.783 17.5365 77.3324 17.4257 76.8743 17.4277C75.6686 17.4277 74.4493 18.0998 74.4493 19.3165C74.4614 19.5759 74.5254 19.8306 74.6373 20.0646C74.7498 20.2991 74.9074 20.5089 75.102 20.6809C75.2967 20.853 75.5244 20.9848 75.7709 21.0681C76.0175 21.1515 76.2782 21.1844 76.5375 21.1649C76.8548 21.1878 77.172 21.1246 77.457 20.9827C77.7412 20.8409 77.9824 20.6251 78.1542 20.3583H78.1946V21.0305H79.4071V17.7974C79.4071 16.3253 78.2889 15.4717 76.8541 15.4717L76.8204 15.4515ZM76.6655 20.0558C76.2546 20.0558 75.682 19.8474 75.682 19.3433C75.682 18.6712 76.3961 18.4494 77.0293 18.4494C77.4294 18.4393 77.8248 18.5374 78.1744 18.7317C78.1326 19.096 77.9595 19.4321 77.6887 19.6794C77.4179 19.9261 77.0663 20.0672 76.6992 20.076L76.6655 20.0558ZM83.826 15.6531L82.3845 19.2963H82.344L80.8486 15.6531H79.5014L81.7445 20.7481L80.4647 23.578H81.7782L85.2271 15.6531H83.826ZM72.5026 21.0305H73.7622V12.6284H72.5026V21.0305Z" fill="white"/>
<path d="M28.8383 10.4574H28.3398V9.1131H28.7642C28.9582 8.90809 29.1044 8.6641 29.1926 8.39658C29.2809 8.12973 29.3098 7.84674 29.2762 7.56712V5.57079H31.9706V9.10639H32.4219V10.4507H31.9234V9.60378H28.8383V10.4574ZM29.7746 7.58729C29.8063 8.12972 29.6722 8.66812 29.3907 9.13326H31.4115V6.06819H29.7746V7.58729ZM36.4501 9.0795C36.0567 9.47002 35.5239 9.68982 34.9682 9.68982C34.4131 9.68982 33.8803 9.47002 33.4862 9.0795C33.1036 8.67485 32.8908 8.1398 32.8908 7.58392C32.8908 7.02737 33.1036 6.49232 33.4862 6.08835C33.6809 5.89342 33.9113 5.73817 34.1659 5.63264C34.4205 5.52711 34.6927 5.47266 34.9682 5.47266C35.2437 5.47266 35.5165 5.52711 35.7711 5.63264C36.0257 5.73817 36.2561 5.89342 36.4501 6.08835C36.8347 6.49165 37.049 7.02737 37.049 7.58392C37.049 8.14048 36.8347 8.6762 36.4501 9.0795ZM33.8702 8.74341C34.1619 9.03312 34.5573 9.19578 34.9682 9.19578C35.3797 9.19578 35.7752 9.03312 36.0662 8.74341C36.3545 8.42682 36.5134 8.01478 36.5134 7.58729C36.5134 7.15979 36.3545 6.74775 36.0662 6.43116C35.7752 6.14146 35.3797 5.97879 34.9682 5.97879C34.5573 5.97879 34.1619 6.14146 33.8702 6.43116C33.5826 6.74775 33.4236 7.15979 33.4236 7.58729C33.4236 8.01478 33.5826 8.42682 33.8702 8.74341ZM39.6632 9.69117C39.3857 9.69655 39.1089 9.64612 38.8515 9.54194C38.5935 9.43842 38.3591 9.28315 38.1624 9.08688C37.9664 8.88994 37.8122 8.65603 37.7084 8.39859C37.6054 8.14048 37.5555 7.86489 37.5616 7.58729C37.5555 7.30968 37.6054 7.03409 37.7084 6.77598C37.8122 6.51854 37.9664 6.28397 38.1624 6.08769C38.3591 5.89142 38.5935 5.73615 38.8515 5.63264C39.1089 5.52845 39.3857 5.47803 39.6632 5.4834C39.9455 5.47668 40.225 5.53315 40.4817 5.64944C40.7383 5.76639 40.9653 5.93913 41.1452 6.15557L40.7814 6.50511C40.6487 6.3364 40.477 6.20196 40.2816 6.11323C40.0856 6.02451 39.8714 5.9835 39.6565 5.99426C39.4504 5.98888 39.2443 6.02518 39.0523 6.10181C38.8603 6.17776 38.6852 6.29203 38.5383 6.43789C38.2466 6.7565 38.0843 7.17256 38.0843 7.60409C38.0843 8.03562 38.2466 8.4517 38.5383 8.77031C38.6852 8.91549 38.8603 9.03043 39.0523 9.10639C39.2443 9.18234 39.4504 9.21931 39.6565 9.21394C39.8936 9.21192 40.1274 9.15679 40.3409 9.05328C40.5538 8.94977 40.7417 8.80055 40.8892 8.6157L41.253 8.97868C41.0697 9.20049 40.84 9.37929 40.5793 9.50296C40.2924 9.63269 39.9792 9.69722 39.6632 9.69117ZM43.3681 9.60378H42.8494V6.06819H41.7178V5.57079H44.493V6.06819H43.3681V9.60378ZM48.0632 5.57079L46.5341 8.97195C46.4734 9.17292 46.3508 9.35038 46.1845 9.47944C46.0181 9.60782 45.8153 9.68176 45.6045 9.69117C45.4657 9.68915 45.3283 9.65957 45.2003 9.60378L45.335 9.12655C45.4172 9.17428 45.5102 9.19981 45.6045 9.20048C45.7035 9.20787 45.8025 9.18434 45.8874 9.13326C45.9689 9.0647 46.0316 8.97666 46.0693 8.87785L46.2175 8.55521L44.8702 5.57752H45.4832L46.4802 7.88977L47.4502 5.57079H48.0632ZM48.6492 9.60378V5.57079H51.5727V9.60378H51.054V6.06819H49.1679V9.60378H48.6492ZM52.4955 9.60378V5.57079H53.0142V7.29826H55.035V5.57079H55.5537V9.60378H55.035V7.78222H53.0142V9.60378H52.4955ZM59.7907 9.0795C59.3973 9.47002 58.8645 9.68982 58.3088 9.68982C57.7537 9.68982 57.2209 9.47002 56.8268 9.0795C56.4442 8.67485 56.2314 8.1398 56.2314 7.58392C56.2314 7.02737 56.4442 6.49232 56.8268 6.08835C57.0215 5.89342 57.2519 5.73817 57.5065 5.63264C57.7611 5.52711 58.0333 5.47266 58.3088 5.47266C58.5843 5.47266 58.8571 5.52711 59.1117 5.63264C59.3664 5.73817 59.5967 5.89342 59.7907 6.08835C60.1754 6.49165 60.3896 7.02737 60.3896 7.58392C60.3896 8.14048 60.1754 8.6762 59.7907 9.0795ZM57.2108 8.74341C57.5025 9.03312 57.8979 9.19578 58.3088 9.19578C58.7204 9.19578 59.1158 9.03312 59.4068 8.74341C59.6951 8.42682 59.854 8.01478 59.854 7.58729C59.854 7.15979 59.6951 6.74775 59.4068 6.43116C59.1158 6.14146 58.7204 5.97879 58.3088 5.97879C57.8979 5.97879 57.5025 6.14146 57.2108 6.43116C56.9232 6.74775 56.7642 7.15979 56.7642 7.58729C56.7642 8.01478 56.9232 8.42682 57.2108 8.74341ZM62.5054 9.60378V5.57079H63.9671C64.2709 5.56474 64.5653 5.67564 64.7889 5.87998C64.9021 5.97744 64.9917 6.09844 65.0523 6.23422C65.1123 6.36999 65.1426 6.51787 65.1392 6.66642C65.1426 6.84522 65.0907 7.02133 64.991 7.17055C64.8927 7.31506 64.7546 7.42932 64.5936 7.4999C64.7896 7.56443 64.9607 7.68611 65.0853 7.84944C65.2153 8.01412 65.284 8.21778 65.2807 8.42749C65.2847 8.58209 65.2537 8.73603 65.1911 8.87785C65.1277 9.01968 65.0348 9.14604 64.9169 9.24754C64.6825 9.4633 64.374 9.58093 64.0547 9.57689L62.5054 9.60378ZM63.0241 7.29826H63.9671C64.0553 7.30162 64.1436 7.28617 64.2244 7.25256C64.3059 7.21895 64.3794 7.16785 64.4386 7.10333C64.4986 7.04955 64.5464 6.98367 64.5808 6.91108C64.6145 6.83781 64.6326 6.75919 64.6353 6.67853C64.638 6.59854 64.6246 6.51855 64.5949 6.44394C64.566 6.36866 64.5222 6.30076 64.4656 6.24296C64.4097 6.1791 64.3403 6.12869 64.2622 6.09508C64.184 6.06147 64.0998 6.04533 64.0143 6.04802H63.051L63.0241 7.29826ZM63.0241 9.10639H64.0682C64.1598 9.10908 64.2507 9.09226 64.3342 9.05597C64.4184 9.02034 64.4932 8.96591 64.5532 8.89802C64.6724 8.77501 64.7398 8.61166 64.7418 8.44093C64.7418 8.26281 64.671 8.0914 64.5451 7.96571C64.4184 7.83934 64.2473 7.76876 64.0682 7.76876H63.0443L63.0241 9.10639Z" fill="white"/>
<path fill-rule="evenodd" clip-rule="evenodd" d="M34.9691 5.54069C34.7031 5.54069 34.439 5.59311 34.1925 5.69528C33.9466 5.79744 33.7236 5.94734 33.5357 6.13554C33.1652 6.52741 32.9591 7.04566 32.9591 7.58473C32.9591 8.12314 33.1652 8.64137 33.5357 9.03325C33.917 9.411 34.4323 9.62342 34.9691 9.62342C35.5067 9.62342 36.022 9.411 36.4033 9.03325C36.7751 8.64205 36.9826 8.12381 36.9826 7.58473C36.9826 7.04566 36.7751 6.52675 36.4033 6.13622C36.2153 5.94734 35.9924 5.79744 35.7465 5.69528C35.4999 5.59311 35.2359 5.54069 34.9691 5.54069ZM34.1413 5.5716C34.4033 5.46204 34.6849 5.40625 34.9691 5.40625C35.2541 5.40625 35.5356 5.46204 35.7977 5.5716C36.0604 5.68049 36.2988 5.84047 36.4989 6.04145L36.5003 6.04278C36.8963 6.45885 37.1173 7.0107 37.1173 7.58473C37.1173 8.15876 36.8963 8.71061 36.5003 9.12668L36.4989 9.12802C36.0927 9.53131 35.5424 9.75784 34.9691 9.75784C34.3966 9.75784 33.8462 9.53131 33.44 9.12802L33.4387 9.12668C33.044 8.70994 32.8244 8.15809 32.8244 7.58473C32.8244 7.01138 33.044 6.45953 33.4387 6.04278L33.4394 6.04145C33.6401 5.84047 33.8786 5.68049 34.1413 5.5716ZM58.3098 5.54069C58.0437 5.54069 57.7796 5.59311 57.5331 5.69528C57.2872 5.79744 57.0643 5.94734 56.8763 6.13554C56.5058 6.52741 56.2997 7.04566 56.2997 7.58473C56.2997 8.12314 56.5058 8.64137 56.8763 9.03325C57.2576 9.411 57.7729 9.62342 58.3098 9.62342C58.8473 9.62342 59.3626 9.411 59.7439 9.03325C60.1157 8.64205 60.3232 8.12381 60.3232 7.58473C60.3232 7.04566 60.1157 6.52675 59.7439 6.13622C59.556 5.94734 59.333 5.79744 59.0871 5.69528C58.8406 5.59311 58.5765 5.54069 58.3098 5.54069ZM57.4819 5.5716C57.7439 5.46204 58.0255 5.40625 58.3098 5.40625C58.5947 5.40625 58.8763 5.46204 59.1383 5.5716C59.401 5.68049 59.6395 5.84047 59.8395 6.04145L59.8409 6.04278C60.237 6.45885 60.4579 7.0107 60.4579 7.58473C60.4579 8.15876 60.237 8.71061 59.8409 9.12668L59.8395 9.12802C59.4334 9.53131 58.883 9.75784 58.3098 9.75784C57.7372 9.75784 57.1869 9.53131 56.7807 9.12802L56.7793 9.12668C56.3846 8.70994 56.165 8.15809 56.165 7.58473C56.165 7.01138 56.3846 6.45953 56.7793 6.04278L56.7807 6.04145C56.9807 5.84047 57.2192 5.68049 57.4819 5.5716ZM40.455 5.71142C40.2078 5.59917 39.9377 5.54472 39.6662 5.55144H39.6629C39.3941 5.54606 39.1267 5.59512 38.8774 5.69528C38.6282 5.7961 38.4012 5.946 38.2112 6.13622C38.0213 6.32577 37.8724 6.55228 37.772 6.80166C37.6723 7.05103 37.6238 7.31788 37.6299 7.58674L37.6306 7.58945C37.6238 7.85764 37.6723 8.12516 37.772 8.37386C37.8724 8.62323 38.0213 8.84975 38.2112 9.03997C38.4012 9.2302 38.6282 9.38009 38.8774 9.48024C39.1267 9.58107 39.3941 9.63013 39.6629 9.62475L39.6642 9.69197L39.6656 9.62475C39.9714 9.6308 40.2738 9.56829 40.552 9.4426C40.7851 9.33236 40.9926 9.17576 41.163 8.98285L40.8949 8.71599C40.7487 8.88202 40.5709 9.01779 40.3715 9.11458C40.1492 9.2228 39.906 9.27925 39.6588 9.28194C39.4433 9.28732 39.2291 9.24901 39.0283 9.1697C38.8276 9.09038 38.645 8.97073 38.4921 8.81883L38.4901 8.81614C38.1863 8.48543 38.0179 8.05323 38.0179 7.6049C38.0179 7.15656 38.1863 6.72436 38.4901 6.39298L38.4921 6.39097C38.645 6.23906 38.8276 6.11941 39.0283 6.0401C39.2284 5.96078 39.4419 5.92247 39.6568 5.92785C39.8818 5.9171 40.1054 5.96012 40.3102 6.05288C40.4934 6.13622 40.6558 6.25655 40.7885 6.40711L41.0539 6.15169C40.8875 5.9655 40.6834 5.81493 40.455 5.71142ZM39.6649 9.75919C39.3779 9.76457 39.093 9.71214 38.8269 9.60527C38.5608 9.49772 38.319 9.33774 38.1162 9.13474C37.9135 8.93175 37.7538 8.69044 37.6474 8.42426C37.5403 8.15808 37.4891 7.87377 37.4952 7.5881C37.4891 7.30175 37.5403 7.01744 37.6474 6.75193C37.7538 6.48576 37.9135 6.24377 38.1162 6.04077C38.319 5.83778 38.5608 5.6778 38.8269 5.57093C39.093 5.46405 39.3779 5.41162 39.6642 5.417C39.9559 5.4096 40.2455 5.46876 40.5109 5.58908C40.7763 5.71007 41.0114 5.88887 41.198 6.11337L41.2384 6.1611L40.7757 6.60607L40.7299 6.54758C40.6032 6.38761 40.4402 6.25991 40.2543 6.17521C40.0684 6.09052 39.8649 6.05221 39.6608 6.06229H39.6561C39.4581 6.05691 39.2621 6.09186 39.0782 6.16512C38.8949 6.23772 38.7279 6.34662 38.5885 6.48508C38.3082 6.79092 38.1526 7.19017 38.1526 7.6049C38.1526 8.01895 38.3082 8.41823 38.5885 8.72473C38.7279 8.8632 38.8949 8.97208 39.0782 9.04467C39.2621 9.11794 39.4581 9.1529 39.6561 9.14752H39.6575C39.8845 9.14551 40.1081 9.09307 40.3122 8.99359C40.5163 8.89479 40.6962 8.75162 40.8376 8.57417L40.8848 8.51569L41.3449 8.97476L41.3065 9.02182C41.1165 9.2517 40.8787 9.43655 40.6093 9.56426L40.6086 9.56494C40.3122 9.6987 39.9896 9.76524 39.6649 9.75919ZM64.7448 5.93054C64.5333 5.73763 64.2557 5.63345 63.9695 5.63882H63.9681H62.5737V9.53604L64.055 9.51048H64.057C64.3588 9.51451 64.6505 9.40294 64.8728 9.1986L64.8741 9.19727C64.9839 9.10249 65.0715 8.98419 65.1301 8.85177C65.1887 8.71868 65.2177 8.57484 65.215 8.42966L65.2143 8.42695C65.2177 8.23336 65.1537 8.04449 65.0338 7.89191L65.0331 7.89124C64.9166 7.73865 64.7562 7.62506 64.5737 7.56457L64.4073 7.50945L64.5676 7.43889C64.7172 7.37369 64.8445 7.26815 64.9368 7.13372C65.0284 6.99592 65.0762 6.83392 65.0735 6.66857V6.66588C65.0762 6.52674 65.0479 6.38897 64.9913 6.2626C64.9347 6.13556 64.8512 6.02263 64.7461 5.93121L64.7448 5.93054ZM64.8351 5.83039C64.5986 5.6153 64.2881 5.49833 63.9681 5.50438H62.439V9.67314L64.055 9.64492H64.0564C64.3918 9.64895 64.7165 9.52528 64.963 9.29809C65.0877 9.19054 65.1867 9.0561 65.2534 8.90621C65.3201 8.75565 65.3531 8.59231 65.3497 8.4283L65.349 8.42898L65.2817 8.4283L65.349 8.42695L65.3497 8.4283C65.3524 8.2038 65.2783 7.98535 65.1402 7.80925C65.0371 7.67481 64.9044 7.56659 64.7535 7.49265C64.8694 7.41938 64.9698 7.32327 65.0479 7.209L65.0486 7.20832C65.1557 7.04835 65.2109 6.85947 65.2082 6.66723L65.2076 6.66857L65.1402 6.66723L65.2076 6.66588L65.2082 6.66723C65.2109 6.50928 65.1793 6.352 65.1146 6.20748C65.0499 6.06297 64.955 5.93458 64.8351 5.83039ZM29.2098 5.50438H32.0389V9.03997H32.4903V10.5187H31.8571V9.67181H28.9066V10.5255H28.2734V9.0467H28.7362C28.9134 8.85379 29.0474 8.62525 29.1296 8.37655C29.2152 8.11844 29.2428 7.84553 29.2104 7.57599L29.2098 7.57197V5.50438ZM29.3445 5.63882V7.56389C29.3782 7.85158 29.3485 8.1433 29.2576 8.41889C29.166 8.69515 29.0151 8.94788 28.8144 9.16028L28.7948 9.18112H28.4082V10.391H28.7719V9.53737H31.9918V10.3843H32.3555V9.17439H31.9042V5.63882H29.3445ZM41.6514 5.50438H44.5614V6.13622H43.4364V9.67181H42.783V6.13622H41.6514V5.50438ZM41.7861 5.63882V6.0018H42.9178V9.53737H43.3017V6.0018H44.4266V5.63882H41.7861ZM47.4067 5.50438H48.1686L46.5984 8.99628C46.533 9.20936 46.403 9.3969 46.2265 9.53335C46.0494 9.67047 45.8331 9.74911 45.6088 9.75919H45.6048C45.4566 9.75718 45.3104 9.72558 45.1743 9.66576L45.1211 9.64223L45.2949 9.02518L45.3704 9.06888C45.4418 9.11055 45.5233 9.13339 45.6061 9.13407H45.6109C45.6944 9.14012 45.7772 9.12129 45.8493 9.07895C45.92 9.01845 45.9739 8.94117 46.0076 8.85446L46.009 8.85042L46.145 8.55601L44.7675 5.51111H45.5287L46.4805 7.7185L47.4067 5.50438ZM47.4963 5.63882L46.4825 8.06264L45.4404 5.64553H44.9756L46.2925 8.55601L46.1329 8.90488C46.0905 9.01377 46.0217 9.10988 45.9322 9.18516L45.9281 9.18853L45.9234 9.19187C45.8271 9.24968 45.7153 9.27657 45.6028 9.26851C45.526 9.26716 45.4499 9.25171 45.3791 9.2228L45.2828 9.56494C45.3859 9.60258 45.495 9.62274 45.6048 9.62475C45.8008 9.61602 45.9887 9.54678 46.1443 9.42713C46.2993 9.30682 46.4138 9.1408 46.471 8.95327L46.4724 8.94923L47.9604 5.63882H47.4963ZM48.5828 5.50438H51.641V9.67181H50.9876V6.13622H49.2362V9.67181H48.5828V5.50438ZM48.7175 5.63882V9.53737H49.1015V6.0018H51.1223V9.53737H51.5063V5.63882H48.7175ZM52.4291 5.50438H53.0825V7.23185H54.9687V5.50438H55.6221V9.67181H54.9687V7.85025H53.0825V9.67181H52.4291V5.50438ZM52.5639 5.63882V9.53737H52.9478V7.71581H55.1034V9.53737H55.4873V5.63882H55.1034V7.36629H52.9478V5.63882H52.5639ZM33.824 6.38426C34.1285 6.08179 34.54 5.91238 34.9691 5.91238C35.3989 5.91238 35.8105 6.08179 36.115 6.38426L36.1176 6.38695C36.4167 6.71564 36.5818 7.1438 36.5818 7.5881C36.5818 8.0324 36.4161 8.46056 36.1176 8.78925L36.115 8.79193C35.8105 9.09441 35.3989 9.26381 34.9691 9.26381C34.54 9.26381 34.1285 9.09441 33.824 8.79193L33.8711 8.74422L33.8213 8.78925C33.5222 8.46056 33.3572 8.0324 33.3572 7.5881C33.3572 7.1438 33.5222 6.71564 33.8213 6.38695L33.824 6.38426ZM33.9203 8.69784C34.1992 8.9741 34.5764 9.12937 34.9691 9.12937C35.3625 9.12937 35.7397 8.9741 36.0186 8.69784C36.2948 8.39335 36.447 7.99812 36.447 7.5881C36.447 7.17808 36.2948 6.78217 36.0186 6.47835C35.7397 6.20209 35.3625 6.04682 34.9691 6.04682C34.5764 6.04682 34.1992 6.20209 33.9203 6.47835C33.6441 6.78217 33.4919 7.17808 33.4919 7.5881C33.4919 7.99812 33.6441 8.39335 33.9203 8.69784ZM57.1646 6.38426C57.4691 6.08179 57.8807 5.91238 58.3098 5.91238C58.7395 5.91238 59.1511 6.08179 59.4556 6.38426L59.4583 6.38695C59.7574 6.71564 59.9224 7.1438 59.9224 7.5881C59.9224 8.0324 59.7567 8.46056 59.4583 8.78925L59.4556 8.79193C59.1511 9.09441 58.7395 9.26381 58.3098 9.26381C57.8807 9.26381 57.4691 9.09441 57.1646 8.79193L57.2118 8.74422L57.1619 8.78925C56.8629 8.46056 56.6978 8.0324 56.6978 7.5881C56.6978 7.1438 56.8629 6.71564 57.1619 6.38695L57.1646 6.38426ZM57.261 8.69784C57.5398 8.9741 57.9171 9.12937 58.3098 9.12937C58.7032 9.12937 59.0804 8.9741 59.3593 8.69784C59.6354 8.39335 59.7877 7.99812 59.7877 7.5881C59.7877 7.17808 59.6354 6.78217 59.3593 6.47835C59.0804 6.20209 58.7032 6.04682 58.3098 6.04682C57.9171 6.04682 57.5398 6.20209 57.261 6.47835C56.9848 6.78217 56.8325 7.17808 56.8325 7.5881C56.8325 7.99812 56.9848 8.39335 57.261 8.69784ZM64.0146 5.98161C64.1089 5.97893 64.2032 5.99708 64.2901 6.03405C64.3763 6.07169 64.4538 6.12749 64.5164 6.19807C64.5784 6.26192 64.6269 6.33719 64.6592 6.41987C64.6916 6.50322 64.7064 6.59262 64.7037 6.68135C64.701 6.77075 64.6801 6.85881 64.6424 6.94014C64.6053 7.02013 64.5528 7.09205 64.4875 7.15187C64.4215 7.22245 64.3413 7.27823 64.2517 7.31587C64.1614 7.35284 64.0644 7.37032 63.9668 7.36629H62.9563L62.9866 5.98161H64.0146ZM64.2362 6.15774C64.1675 6.12816 64.0927 6.11337 64.0173 6.11606H64.0153H63.118L63.0944 7.23185H63.9715C64.0496 7.23521 64.1278 7.2211 64.1998 7.19152C64.2726 7.16127 64.3372 7.11624 64.3905 7.05844L64.3925 7.05642L64.3945 7.05439C64.4477 7.00667 64.4902 6.94819 64.5205 6.88367C64.5501 6.81914 64.567 6.74856 64.569 6.67731C64.5717 6.60606 64.5589 6.53548 64.5333 6.46894C64.5077 6.40239 64.4686 6.34191 64.4187 6.29082L64.4161 6.28814C64.3669 6.23235 64.3049 6.18731 64.2362 6.15774ZM29.7082 6.0018H31.4798V9.20129H29.2724L29.3344 9.09911C29.6085 8.64607 29.7392 8.12046 29.7089 7.59214L29.7082 7.5881V6.0018ZM29.843 6.13622V7.58609C29.8726 8.10164 29.7561 8.61517 29.5082 9.06687H31.3451V6.13622H29.843ZM62.9792 7.70237H64.0692C64.2659 7.70237 64.4545 7.78034 64.5932 7.9188C64.7327 8.05727 64.8101 8.24547 64.8101 8.44174V8.44241C64.8081 8.62995 64.734 8.80942 64.604 8.94453C64.5373 9.01981 64.4545 9.07896 64.3622 9.11862C64.2692 9.15828 64.1688 9.17776 64.0685 9.17439H62.957L62.9792 7.70237ZM63.1119 7.83679L63.0938 9.03997H64.0719C64.1534 9.04266 64.2342 9.0272 64.309 8.9956C64.3837 8.96334 64.4504 8.91495 64.5043 8.85446L64.5056 8.85177C64.6127 8.74153 64.6734 8.59501 64.6754 8.44108C64.6754 8.28111 64.6114 8.12717 64.4982 8.01357C64.3844 7.90065 64.2301 7.83679 64.0692 7.83679H63.1119Z" fill="white"/>
<path d="M7.5046 5.93375C7.285 6.19657 7.17453 6.53267 7.19474 6.8748V21.7431C7.17453 22.0845 7.285 22.4213 7.5046 22.6841L7.55175 22.7312L15.8978 14.4098V14.2148L7.55175 5.88672L7.5046 5.93375Z" fill="url(#paint0_linear_1324_6714)"/>
<path d="M18.6602 17.1873L15.8984 14.4113V14.2163L18.6602 11.4336L18.7209 11.4672L22.0283 13.3425C22.9714 13.8735 22.9714 14.7473 22.0283 15.2851L18.7343 17.1537L18.6602 17.1873Z" fill="url(#paint1_linear_1324_6714)"/>
<path d="M18.7407 17.1451L15.8981 14.3086L7.50488 22.6838C7.69754 22.8525 7.94273 22.9493 8.1987 22.9567C8.454 22.9641 8.70459 22.8814 8.906 22.7241L18.7475 17.1451" fill="url(#paint2_linear_1324_6714)"/>
<path d="M18.7406 11.4741L8.89916 5.89512C8.69708 5.73783 8.44717 5.65517 8.1912 5.66257C7.93523 5.66996 7.69003 5.76673 7.49805 5.93545L15.898 14.3106L18.7406 11.4741Z" fill="url(#paint3_linear_1324_6714)"/>
<path opacity="0.2" d="M18.6599 17.0859L8.89926 22.6313C8.70526 22.7765 8.46883 22.8551 8.22565 22.8551C7.98315 22.8551 7.74671 22.7765 7.55204 22.6313L7.50488 22.6783L7.55204 22.7254C7.74604 22.8719 7.98315 22.9506 8.22565 22.9506C8.46883 22.9506 8.70526 22.8719 8.89926 22.7254L18.7407 17.1464L18.6599 17.0859Z" fill="black"/>
<path opacity="0.12" d="M7.5046 22.5897C7.28501 22.3269 7.17453 21.9908 7.19474 21.6486V21.7495C7.17453 22.0916 7.28501 22.4277 7.5046 22.6905L7.55175 22.6434L7.5046 22.5897ZM22.0277 15.1824L18.6596 17.0846L18.7202 17.1451L22.0277 15.2765C22.2156 15.1891 22.3766 15.0534 22.4945 14.8833C22.613 14.7132 22.6844 14.5149 22.7013 14.3086C22.6636 14.4961 22.5834 14.6722 22.4662 14.8241C22.3497 14.9754 22.1994 15.0984 22.0277 15.1824Z" fill="black"/>
<path opacity="0.25" d="M8.89945 5.98848L22.0281 13.4361C22.1999 13.5208 22.3494 13.6438 22.4667 13.795C22.5832 13.9469 22.6634 14.123 22.7017 14.3099C22.6842 14.1042 22.6135 13.9059 22.4949 13.7358C22.3764 13.5658 22.2154 13.43 22.0281 13.342L8.89945 5.89439C7.9564 5.36338 7.18848 5.807 7.18848 6.88247V6.98329C7.20868 5.9011 7.96314 5.45747 8.89945 5.98848Z" fill="white"/>
<defs>
<linearGradient id="paint0_linear_1324_6714" x1="15.1568" y1="6.7202" x2="3.87791" y2="18.0234" gradientUnits="userSpaceOnUse">
<stop stop-color="#00A0FF"/>
<stop offset="0.01" stop-color="#00A1FF"/>
<stop offset="0.26" stop-color="#00BEFF"/>
<stop offset="0.51" stop-color="#00D2FF"/>
<stop offset="0.76" stop-color="#00DFFF"/>
<stop offset="1" stop-color="#00E3FF"/>
</linearGradient>
<linearGradient id="paint1_linear_1324_6714" x1="23.261" y1="14.3105" x2="6.96635" y2="14.3105" gradientUnits="userSpaceOnUse">
<stop stop-color="#FFE000"/>
<stop offset="0.41" stop-color="#FFBD00"/>
<stop offset="0.78" stop-color="#FFA500"/>
<stop offset="1" stop-color="#FF9C00"/>
</linearGradient>
<linearGradient id="paint2_linear_1324_6714" x1="17.1982" y1="15.8546" x2="1.89966" y2="31.1792" gradientUnits="userSpaceOnUse">
<stop stop-color="#FF3A44"/>
<stop offset="1" stop-color="#C31162"/>
</linearGradient>
<linearGradient id="paint3_linear_1324_6714" x1="5.38964" y1="0.988331" x2="12.2188" y2="7.8322" gradientUnits="userSpaceOnUse">
<stop stop-color="#32A071"/>
<stop offset="0.07" stop-color="#2DA771"/>
<stop offset="0.48" stop-color="#15CF74"/>
<stop offset="0.8" stop-color="#06E775"/>
<stop offset="1" stop-color="#00F076"/>
</linearGradient>
</defs>
</svg>
