<svg width="35" height="36" viewBox="0 0 35 36" fill="none" xmlns="http://www.w3.org/2000/svg">
<circle cx="17.429" cy="17.9998" r="17.1429" fill="url(#paint0_linear_1_7536)"/>
<path d="M23.0701 11.1421H12.6459C11.469 11.1421 10.5723 12.0388 10.5723 13.2157V23.6399C10.5723 24.8168 11.469 25.7135 12.6459 25.7135H23.0701C24.247 25.7135 25.1437 24.8168 25.1437 23.6399V13.2157C25.1437 12.0388 24.247 11.1421 23.0701 11.1421ZM17.858 22.7992C20.2679 22.7992 22.2294 20.8937 22.2294 18.5959C22.2294 18.2036 22.1734 17.7553 22.0613 17.419H23.2942V23.3597C23.2942 23.6399 23.0701 23.9201 22.7338 23.9201H12.9822C12.7019 23.9201 12.4217 23.6959 12.4217 23.3597V17.363H13.7107C13.5986 17.7553 13.5426 18.1476 13.5426 18.5399C13.4866 20.8937 15.4481 22.7992 17.858 22.7992ZM17.858 21.1179C16.2887 21.1179 15.0558 19.8849 15.0558 18.3718C15.0558 16.8586 16.2887 15.6256 17.858 15.6256C19.4272 15.6256 20.6602 16.8586 20.6602 18.3718C20.6602 19.941 19.4272 21.1179 17.858 21.1179ZM23.2382 15.1212C23.2382 15.4575 22.958 15.7377 22.6217 15.7377H21.0525C20.7162 15.7377 20.436 15.4575 20.436 15.1212V13.608C20.436 13.2718 20.7162 12.9915 21.0525 12.9915H22.6217C22.958 12.9915 23.2382 13.2718 23.2382 13.608V15.1212Z" fill="white"/>
<defs>
<linearGradient id="paint0_linear_1_7536" x1="7.57185" y1="31.2855" x2="30.2861" y2="7.71408" gradientUnits="userSpaceOnUse">
<stop stop-color="#EEA054"/>
<stop offset="0.502762" stop-color="#D64763"/>
<stop offset="1" stop-color="#B62A99"/>
</linearGradient>
</defs>
</svg>
