<svg width="11" height="18" viewBox="0 0 11 18" fill="none" xmlns="http://www.w3.org/2000/svg">
<path d="M5.17882 12.2975C5.95267 12.2975 6.6149 11.9747 7.16588 11.3294C7.71676 10.6841 7.99223 9.90774 7.99223 9.0011V3.72648C7.99223 2.81984 7.71697 2.04382 7.16588 1.39818C6.6149 0.752673 5.95267 0.429688 5.17882 0.429688C4.40507 0.429688 3.74274 0.752673 3.19174 1.39818C2.6407 2.04371 2.36523 2.81984 2.36523 3.72648V9.0011C2.36523 9.9077 2.64083 10.6841 3.19174 11.3294C3.74265 11.9747 4.40507 12.2975 5.17882 12.2975Z" fill="#002347"/>
<path d="M10.077 7.21728C9.96595 7.08676 9.83377 7.02148 9.68136 7.02148C9.52911 7.02148 9.39724 7.08676 9.28573 7.21728C9.17446 7.34776 9.11878 7.50227 9.11878 7.68077V8.99954C9.11878 10.2702 8.73328 11.357 7.96245 12.2602C7.19188 13.1633 6.26421 13.6149 5.17973 13.6149C4.09528 13.6149 3.1677 13.1633 2.39685 12.2602C1.62609 11.3573 1.24074 10.2702 1.24074 8.99954V7.68077C1.24074 7.50227 1.18503 7.34776 1.0737 7.21728C0.962309 7.08676 0.830564 7.02148 0.678062 7.02148C0.52556 7.02148 0.393661 7.08676 0.282334 7.21728C0.170914 7.34776 0.115234 7.50227 0.115234 7.68077V8.99954C0.115234 10.5174 0.54761 11.8379 1.41212 12.9607C2.27665 14.0836 3.34493 14.7274 4.61699 14.8921V16.2522H2.36614C2.21374 16.2522 2.08187 16.3175 1.97051 16.448C1.85912 16.5784 1.80341 16.733 1.80341 16.9116C1.80341 17.0899 1.85912 17.2448 1.97051 17.3752C2.08187 17.5056 2.21374 17.571 2.36614 17.571H7.99316C8.14554 17.571 8.27759 17.5056 8.38879 17.3752C8.50031 17.2448 8.55605 17.0899 8.55605 16.9116C8.55605 16.7331 8.50031 16.5785 8.38879 16.448C8.27762 16.3175 8.14557 16.2522 7.99316 16.2522H5.74259V14.8921C7.01443 14.7274 8.08262 14.0836 8.94725 12.9607C9.81188 11.8379 10.2444 10.5174 10.2444 8.99954V7.68077C10.2444 7.5023 10.1885 7.3479 10.077 7.21728Z" fill="#002347"/>
</svg>
