<svg width="25" height="26" viewBox="0 0 25 26" fill="none" xmlns="http://www.w3.org/2000/svg">
<path fill-rule="evenodd" clip-rule="evenodd" d="M0 1.74976C0 1.0594 0.559644 0.499756 1.25 0.499756H3.14997C3.72219 0.499756 4.24289 0.830369 4.48629 1.34824L5.2625 2.99976H23.75C24.0815 2.99976 24.3995 3.13145 24.6339 3.36587C24.8683 3.60029 25 3.91824 25 4.24976C25 4.46226 24.9375 4.67476 24.85 4.87476L20.375 12.9623C19.95 13.7248 19.125 14.2498 18.1875 14.2498H8.875L7.75 16.2873L7.7125 16.4373C7.7125 16.5201 7.74542 16.5996 7.80403 16.6582C7.86263 16.7168 7.94212 16.7498 8.025 16.7498H21.25C21.9404 16.7498 22.5 17.3094 22.5 17.9998C22.5 18.6901 21.9404 19.2498 21.25 19.2498H7.5C6.1125 19.2498 5 18.1248 5 16.7498C5 16.3123 5.1125 15.8998 5.3 15.5498L7 12.4873L2.5 2.99976H1.25C0.559644 2.99976 0 2.44011 0 1.74976ZM18.75 11.7498L22.225 5.49976H6.425L9.375 11.7498H18.75Z" fill="#484B4C"/>
<path d="M10 22.9998C10 24.3805 8.88071 25.4998 7.5 25.4998C6.11929 25.4998 5 24.3805 5 22.9998C5 21.619 6.11929 20.4998 7.5 20.4998C8.88071 20.4998 10 21.619 10 22.9998Z" fill="#484B4C"/>
<path d="M20 25.4998C21.3807 25.4998 22.5 24.3805 22.5 22.9998C22.5 21.619 21.3807 20.4998 20 20.4998C18.6193 20.4998 17.5 21.619 17.5 22.9998C17.5 24.3805 18.6193 25.4998 20 25.4998Z" fill="#484B4C"/>
</svg>
