<svg width="27" height="28" viewBox="0 0 27 28" fill="none" xmlns="http://www.w3.org/2000/svg">
<path d="M6 2.75V6.5H2.25V2.75H6ZM7.875 25.25V21.5C7.875 21.0027 7.67746 20.5258 7.32582 20.1742C6.97419 19.8225 6.49728 19.625 6 19.625H2.25C1.75272 19.625 1.27581 19.8225 0.924175 20.1742C0.572544 20.5258 0.375 21.0027 0.375 21.5V25.25C0.375 25.7473 0.572544 26.2242 0.924175 26.5758C1.27581 26.9275 1.75272 27.125 2.25 27.125H6C6.49728 27.125 6.97419 26.9275 7.32582 26.5758C7.67746 26.2242 7.875 25.7473 7.875 25.25ZM7.875 15.875V12.125C7.875 11.6277 7.67746 11.1508 7.32582 10.7992C6.97419 10.4475 6.49728 10.25 6 10.25H2.25C1.75272 10.25 1.27581 10.4475 0.924175 10.7992C0.572544 11.1508 0.375 11.6277 0.375 12.125V15.875C0.375 16.3723 0.572544 16.8492 0.924175 17.2008C1.27581 17.5525 1.75272 17.75 2.25 17.75H6C6.49728 17.75 6.97419 17.5525 7.32582 17.2008C7.67746 16.8492 7.875 16.3723 7.875 15.875ZM7.875 6.5V2.75C7.875 2.25272 7.67746 1.77581 7.32582 1.42417C6.97419 1.07254 6.49728 0.875 6 0.875H2.25C1.75272 0.875 1.27581 1.07254 0.924175 1.42417C0.572544 1.77581 0.375 2.25272 0.375 2.75V6.5C0.375 6.99728 0.572544 7.47419 0.924175 7.82582C1.27581 8.17746 1.75272 8.375 2.25 8.375H6C6.49728 8.375 6.97419 8.17746 7.32582 7.82582C7.67746 7.47419 7.875 6.99728 7.875 6.5ZM17.25 25.25V21.5C17.25 21.0027 17.0525 20.5258 16.7008 20.1742C16.3492 19.8225 15.8723 19.625 15.375 19.625H11.625C11.1277 19.625 10.6508 19.8225 10.2992 20.1742C9.94754 20.5258 9.75 21.0027 9.75 21.5V25.25C9.75 25.7473 9.94754 26.2242 10.2992 26.5758C10.6508 26.9275 11.1277 27.125 11.625 27.125H15.375C15.8723 27.125 16.3492 26.9275 16.7008 26.5758C17.0525 26.2242 17.25 25.7473 17.25 25.25ZM17.25 15.875V12.125C17.25 11.6277 17.0525 11.1508 16.7008 10.7992C16.3492 10.4475 15.8723 10.25 15.375 10.25H11.625C11.1277 10.25 10.6508 10.4475 10.2992 10.7992C9.94754 11.1508 9.75 11.6277 9.75 12.125V15.875C9.75 16.3723 9.94754 16.8492 10.2992 17.2008C10.6508 17.5525 11.1277 17.75 11.625 17.75H15.375C15.8723 17.75 16.3492 17.5525 16.7008 17.2008C17.0525 16.8492 17.25 16.3723 17.25 15.875ZM17.25 6.5V2.75C17.25 2.25272 17.0525 1.77581 16.7008 1.42417C16.3492 1.07254 15.8723 0.875 15.375 0.875H11.625C11.1277 0.875 10.6508 1.07254 10.2992 1.42417C9.94754 1.77581 9.75 2.25272 9.75 2.75V6.5C9.75 6.99728 9.94754 7.47419 10.2992 7.82582C10.6508 8.17746 11.1277 8.375 11.625 8.375H15.375C15.8723 8.375 16.3492 8.17746 16.7008 7.82582C17.0525 7.47419 17.25 6.99728 17.25 6.5ZM15.375 2.75V6.5H11.625V2.75H15.375ZM24.75 2.75V6.5H21V2.75H24.75ZM6 12.125V15.875H2.25V12.125H6ZM15.375 12.125V15.875H11.625V12.125H15.375ZM24.75 12.125H21V15.875H24.75V12.125ZM6 21.5V25.25H2.25V21.5H6ZM15.375 21.5V25.25H11.625V21.5H15.375ZM24.75 21.5V25.25H21V21.5H24.75ZM21 0.875C20.5027 0.875 20.0258 1.07254 19.6742 1.42417C19.3225 1.77581 19.125 2.25272 19.125 2.75V6.5C19.125 6.99728 19.3225 7.47419 19.6742 7.82582C20.0258 8.17746 20.5027 8.375 21 8.375H24.75C25.2473 8.375 25.7242 8.17746 26.0758 7.82582C26.4275 7.47419 26.625 6.99728 26.625 6.5V2.75C26.625 2.25272 26.4275 1.77581 26.0758 1.42417C25.7242 1.07254 25.2473 0.875 24.75 0.875H21ZM19.125 12.125C19.125 11.6277 19.3225 11.1508 19.6742 10.7992C20.0258 10.4475 20.5027 10.25 21 10.25H24.75C25.2473 10.25 25.7242 10.4475 26.0758 10.7992C26.4275 11.1508 26.625 11.6277 26.625 12.125V15.875C26.625 16.3723 26.4275 16.8492 26.0758 17.2008C25.7242 17.5525 25.2473 17.75 24.75 17.75H21C20.5027 17.75 20.0258 17.5525 19.6742 17.2008C19.3225 16.8492 19.125 16.3723 19.125 15.875V12.125ZM21 19.625C20.5027 19.625 20.0258 19.8225 19.6742 20.1742C19.3225 20.5258 19.125 21.0027 19.125 21.5V25.25C19.125 25.7473 19.3225 26.2242 19.6742 26.5758C20.0258 26.9275 20.5027 27.125 21 27.125H24.75C25.2473 27.125 25.7242 26.9275 26.0758 26.5758C26.4275 26.2242 26.625 25.7473 26.625 25.25V21.5C26.625 21.0027 26.4275 20.5258 26.0758 20.1742C25.7242 19.8225 25.2473 19.625 24.75 19.625H21Z" fill="#484B4C"/>
</svg>
