<svg width="27" height="26" viewBox="0 0 27 26" fill="none" xmlns="http://www.w3.org/2000/svg">
<path d="M26.2296 12.795L14.9093 1.48054L14.1505 0.721754C13.9776 0.550005 13.7438 0.453613 13.5001 0.453613C13.2564 0.453613 13.0226 0.550005 12.8497 0.721754L0.770629 12.795C0.593474 12.9715 0.453466 13.1816 0.358868 13.4131C0.26427 13.6446 0.217 13.8926 0.219848 14.1427C0.231567 15.1739 1.08997 15.9971 2.12122 15.9971H3.36633V25.5391H23.6339V15.9971H24.9054C25.4064 15.9971 25.878 15.8009 26.2325 15.4464C26.4071 15.2724 26.5454 15.0655 26.6394 14.8377C26.7335 14.6099 26.7814 14.3657 26.7804 14.1192C26.7804 13.6212 26.5841 13.1495 26.2296 12.795ZM15.1407 23.4298H11.8595V17.4532H15.1407V23.4298ZM21.5245 13.8878V23.4298H17.0157V16.7501C17.0157 16.1026 16.4913 15.5782 15.8439 15.5782H11.1564C10.5089 15.5782 9.9845 16.1026 9.9845 16.7501V23.4298H5.47571V13.8878H2.66321L13.503 3.05671L14.1798 3.73347L24.34 13.8878H21.5245Z" fill="#484B4C"/>
</svg>
