<svg width="27" height="28" viewBox="0 0 27 28" fill="none" xmlns="http://www.w3.org/2000/svg">
<path d="M7.875 15.875C8.37228 15.875 8.84919 15.6775 9.20082 15.3258C9.55246 14.9742 9.75 14.4973 9.75 14C9.75 13.5027 9.55246 13.0258 9.20082 12.6742C8.84919 12.3225 8.37228 12.125 7.875 12.125C7.37772 12.125 6.90081 12.3225 6.54918 12.6742C6.19754 13.0258 6 13.5027 6 14C6 14.4973 6.19754 14.9742 6.54918 15.3258C6.90081 15.6775 7.37772 15.875 7.875 15.875ZM13.5 15.875C13.9973 15.875 14.4742 15.6775 14.8258 15.3258C15.1775 14.9742 15.375 14.4973 15.375 14C15.375 13.5027 15.1775 13.0258 14.8258 12.6742C14.4742 12.3225 13.9973 12.125 13.5 12.125C13.0027 12.125 12.5258 12.3225 12.1742 12.6742C11.8225 13.0258 11.625 13.5027 11.625 14C11.625 14.4973 11.8225 14.9742 12.1742 15.3258C12.5258 15.6775 13.0027 15.875 13.5 15.875ZM21 14C21 14.4973 20.8025 14.9742 20.4508 15.3258C20.0992 15.6775 19.6223 15.875 19.125 15.875C18.6277 15.875 18.1508 15.6775 17.7992 15.3258C17.4475 14.9742 17.25 14.4973 17.25 14C17.25 13.5027 17.4475 13.0258 17.7992 12.6742C18.1508 12.3225 18.6277 12.125 19.125 12.125C19.6223 12.125 20.0992 12.3225 20.4508 12.6742C20.8025 13.0258 21 13.5027 21 14ZM26.625 14C26.625 21.2488 20.7488 27.125 13.5 27.125C6.25125 27.125 0.375 21.2488 0.375 14C0.375 6.75125 6.25125 0.875 13.5 0.875C20.7488 0.875 26.625 6.75125 26.625 14ZM24.75 14C24.75 7.78719 19.7128 2.75 13.5 2.75C7.28719 2.75 2.25 7.78719 2.25 14C2.25 20.2128 7.28719 25.25 13.5 25.25C19.7128 25.25 24.75 20.2128 24.75 14Z" fill="#484B4C"/>
</svg>
