<svg width="27" height="30" viewBox="0 0 27 30" fill="none" xmlns="http://www.w3.org/2000/svg">
<path d="M10.3754 8.7499C11.4129 8.7499 12.2504 9.5874 12.2504 10.6249C12.2504 11.6624 11.4129 12.4999 10.3754 12.4999C9.33789 12.4999 8.50039 11.6624 8.50039 10.6249C8.50039 9.5874 9.33789 8.7499 10.3754 8.7499ZM16.6254 17.4999C17.6629 17.4999 18.5004 18.3374 18.5004 19.3749C18.5004 20.4124 17.6629 21.2499 16.6254 21.2499C15.5879 21.2499 14.7504 20.4124 14.7504 19.3749C14.7504 18.3374 15.5879 17.4999 16.6254 17.4999ZM9.01289 21.2499L7.25039 19.4874L17.9879 8.7499L19.7504 10.5124L9.01289 21.2499ZM21.8129 3.5624L22.5754 8.3874L26.9629 10.6249L24.7504 14.9999L26.9754 19.3749L22.5504 21.6124L21.7879 26.4374L16.9254 25.6749L13.4629 29.1374L9.98789 25.6249L5.16289 26.4249L4.38789 21.5624L0.0253906 19.3374L2.25039 14.9624L0.0378906 10.6249L4.42539 8.3624L5.18789 3.5874L10.0254 4.3749L13.5004 0.868652L16.9504 4.3249L21.8129 3.5624ZM23.6254 11.7124L20.3754 9.9999L19.7504 6.3874L16.1254 6.9124L13.5004 4.3749L10.8754 6.9124L7.25039 6.3874L6.62539 9.9999L3.37539 11.7124L5.00039 14.9999L3.37539 18.2874L6.62539 19.9999L7.25039 23.6124L10.8754 23.0874L13.5004 25.6249L16.1254 23.0874L19.7504 23.6124L20.3754 19.9999L23.6254 18.2874L22.0004 14.9999L23.6254 11.7124Z" fill="#484B4C"/>
</svg>
