<svg width="16" height="16" viewBox="0 0 16 16" fill="none" xmlns="http://www.w3.org/2000/svg">
<path d="M15.7255 14.8637L11.9737 11.0171C12.9037 9.85469 13.4643 8.36571 13.4643 6.74286C13.4643 3.02041 10.5182 0 6.8874 0C3.25341 0 0.310547 3.02041 0.310547 6.74286C0.310547 10.4653 3.25341 13.4857 6.8874 13.4857C8.47031 13.4857 9.91944 12.9143 11.0533 11.9608L14.8051 15.8041C15.0599 16.0653 15.4708 16.0653 15.7255 15.8041C15.9803 15.5461 15.9803 15.1216 15.7255 14.8637ZM6.8874 12.1437C3.97957 12.1437 1.61636 9.72082 1.61636 6.74286C1.61636 3.7649 3.97957 1.33878 6.8874 1.33878C9.79205 1.33878 12.1584 3.7649 12.1584 6.74286C12.1584 9.72082 9.79205 12.1437 6.8874 12.1437Z" fill="#002347"/>
</svg>
