<svg width="21" height="20" viewBox="0 0 21 20" fill="none" xmlns="http://www.w3.org/2000/svg">
<path d="M15.7122 20C15.0279 20 14.3357 19.9175 13.6453 19.7516C8.6487 18.5531 1.5188 11.7623 0.26052 7.00326C-0.247878 5.083 -0.00899011 3.15101 0.949182 1.4183C1.36659 0.66402 2.11125 0.158139 2.9933 0.0297801C3.8666 -0.0944028 4.7294 0.173134 5.35597 0.76989L7.40009 2.71682C8.20515 3.4836 8.4379 4.6554 7.98024 5.63219C7.74048 6.14558 7.43421 6.58065 7.07019 6.92653C6.82079 7.1649 6.77093 7.55828 6.9223 8.09586C7.4727 10.0528 10.4427 12.8824 12.4982 13.4075C13.0635 13.5517 13.4765 13.5042 13.7259 13.2658C14.0899 12.9191 14.5476 12.6274 15.0857 12.399C16.1113 11.9615 17.3416 12.1848 18.1467 12.9508L20.1908 14.8977C20.8173 15.4944 21.1008 16.3154 20.9678 17.1489C20.834 17.9882 20.3028 18.6982 19.51 19.095C18.3129 19.6967 17.0265 20 15.7122 20ZM3.40983 1.3334C3.3407 1.3334 3.27157 1.3384 3.20157 1.3484C2.76405 1.41174 2.39476 1.66345 2.18652 2.03933C1.38059 3.49785 1.18897 5.05883 1.61686 6.67824C2.75616 10.9879 9.4609 17.3747 13.9857 18.459C15.686 18.8674 17.3249 18.684 18.8562 17.9164C19.2509 17.7181 19.5152 17.3664 19.5817 16.9497C19.6473 16.5404 19.5073 16.1362 19.1984 15.842L17.1543 13.8951C16.757 13.5175 16.1541 13.4058 15.6527 13.6175C15.2712 13.7801 14.9553 13.9784 14.7129 14.2093C14.2806 14.621 13.4826 15.0394 12.1332 14.696C9.56843 14.0417 6.2546 10.8847 5.56688 8.44194C5.20548 7.1576 5.64563 6.39584 6.0779 5.98486C6.32028 5.754 6.52855 5.45312 6.6983 5.09058C6.92144 4.61384 6.80419 4.0396 6.40691 3.66039L4.36541 1.71263C4.1064 1.46677 3.76684 1.3334 3.40983 1.3334Z" fill="#305E65"/>
</svg>
