<svg width="22" height="25" viewBox="0 0 22 25" fill="none" xmlns="http://www.w3.org/2000/svg">
<g clip-path="url(#clip0_1359_6732)">
<path d="M7.85714 19.5312C7.85714 19.9609 7.50357 20.3125 7.07143 20.3125C6.63929 20.3125 6.28571 19.9609 6.28571 19.5312V9.375C6.28571 8.94531 6.63929 8.59375 7.07143 8.59375C7.50357 8.59375 7.85714 8.94531 7.85714 9.375V19.5312ZM11.7857 19.5312C11.7857 19.9609 11.4321 20.3125 11 20.3125C10.5679 20.3125 10.2143 19.9609 10.2143 19.5312V9.375C10.2143 8.94531 10.5679 8.59375 11 8.59375C11.4321 8.59375 11.7857 8.94531 11.7857 9.375V19.5312ZM15.7143 19.5312C15.7143 19.9609 15.3607 20.3125 14.9286 20.3125C14.4964 20.3125 14.1429 19.9609 14.1429 19.5312V9.375C14.1429 8.94531 14.4964 8.59375 14.9286 8.59375C15.3607 8.59375 15.7143 8.94531 15.7143 9.375V19.5312ZM15.5915 1.21777L17.3938 3.90625H20.8214C21.4746 3.90625 22 4.43115 22 5.07812C22 5.72754 21.4746 6.25 20.8214 6.25H20.4286V21.0938C20.4286 23.252 18.6705 25 16.5 25H5.5C3.33045 25 1.57143 23.252 1.57143 21.0938V6.25H1.17857C0.527902 6.25 0 5.72754 0 5.07812C0 4.43115 0.527902 3.90625 1.17857 3.90625H4.60723L6.40848 1.21777C6.9192 0.456885 7.77857 0 8.69688 0H13.3031C14.2214 0 15.0808 0.456934 15.5915 1.21777V1.21777ZM7.43973 3.90625H14.5603L13.6272 2.51758C13.5536 2.40918 13.4308 2.34375 13.3031 2.34375H8.69688C8.5692 2.34375 8.40223 2.40918 8.37277 2.51758L7.43973 3.90625ZM3.92857 21.0938C3.92857 21.958 4.63228 22.6562 5.5 22.6562H16.5C17.3692 22.6562 18.0714 21.958 18.0714 21.0938V6.25H3.92857V21.0938Z" fill="#8D99A0" fill-opacity="0.4"/>
</g>
<defs>
<clipPath id="clip0_1359_6732">
<rect width="22" height="25" fill="white"/>
</clipPath>
</defs>
</svg>
