<svg width="35" height="36" viewBox="0 0 35 36" fill="none" xmlns="http://www.w3.org/2000/svg">
<circle cx="17.7141" cy="17.9998" r="17.1429" fill="#F40000"/>
<path d="M25.1817 17.0682C25.1817 16.7357 25.1263 16.3478 25.1263 15.9046C25.0709 15.4613 25.0155 15.018 24.9601 14.6301C24.8492 14.1868 24.683 13.8543 24.3505 13.5773C24.0735 13.3002 23.6856 13.134 23.2977 13.0786C22.0233 12.9123 20.1393 12.8569 17.5904 12.8569C15.0415 12.8569 13.1021 12.9123 11.883 13.0786C11.4951 13.134 11.1072 13.3002 10.8302 13.5773C10.5531 13.8543 10.3315 14.1868 10.2207 14.6301C10.1098 15.018 10.0544 15.4059 10.0544 15.9046C9.99903 16.3478 9.99902 16.7357 9.99902 17.0682C9.99902 17.4007 9.99902 17.7885 9.99902 18.3426C9.99902 18.8968 9.99902 19.34 9.99902 19.6171C9.99902 19.9496 10.0544 20.3375 10.0544 20.7807C10.1098 21.224 10.1653 21.6673 10.2207 22.0552C10.3315 22.4985 10.4977 22.831 10.8302 23.108C11.1072 23.3851 11.4951 23.5513 11.883 23.6067C13.1575 23.7729 15.0415 23.8284 17.5904 23.8284C20.1393 23.8284 22.0787 23.7729 23.2977 23.6067C23.6856 23.5513 24.0735 23.3851 24.3505 23.108C24.6276 22.831 24.8492 22.4985 24.9601 22.0552C25.0709 21.6673 25.1263 21.2794 25.1263 20.7807C25.1817 20.3375 25.1817 19.9496 25.1817 19.6171C25.1817 19.2846 25.1817 18.8968 25.1817 18.3426C25.1817 17.7885 25.1817 17.3452 25.1817 17.0682ZM20.5272 18.7859L16.1497 21.5011C16.0943 21.5565 15.9834 21.6119 15.8726 21.6119C15.7618 21.6119 15.7064 21.6119 15.5956 21.5565C15.4293 21.4457 15.3185 21.2794 15.3185 21.0578V15.5721C15.3185 15.3504 15.4293 15.1842 15.5956 15.0734C15.7618 14.9626 15.9834 14.9626 16.1497 15.0734L20.5272 17.7885C20.6934 17.8994 20.8042 18.0656 20.8042 18.2318C20.8042 18.3981 20.6934 18.6751 20.5272 18.7859Z" fill="white"/>
</svg>
